<?xml version="1.0" encoding="UTF-8"?>
<svg xmlns="http://www.w3.org/2000/svg" xmlns:xlink="http://www.w3.org/1999/xlink" viewBox="0 0 931.72 97.26">
    <defs>
        <style>
            .o{fill:#fff;}.p{fill:url(#l);}.q{fill:url(#m);}.r{fill:#634c14;}.s{fill:url(#f);}.t{fill:url(#g);}.u{fill:url(#i);}.v{fill:url(#h);}.w{fill:url(#d);}.x{fill:url(#e);}.y{fill:url(#n);}.aa{fill:url(#j);}.ab{fill:url(#k);}.ac{fill:#543a14;opacity:.7;}
        </style>
        <linearGradient id="d" x1="572.22" y1="102.9" x2="836.58" y2="-9.67"
                        gradientTransform="matrix(1, 0, 0, 1, 0, 0)" gradientUnits="userSpaceOnUse">
            <stop offset=".23" stop-color="#ad8431"/>
            <stop offset="1" stop-color="#f2ce38"/>
        </linearGradient>
        <linearGradient id="e" x1="571.65" y1="65.54" x2="822.93" y2="-41.47"
                        gradientTransform="matrix(1, 0, 0, 1, 0, 0)" gradientUnits="userSpaceOnUse">
            <stop offset="0" stop-color="#ffe36c" stop-opacity=".3"/>
            <stop offset="1" stop-color="#fff" stop-opacity=".3"/>
        </linearGradient>
        <linearGradient id="f" x1="834.45" y1="48.63" x2="931.72" y2="48.63"
                        gradientTransform="matrix(1, 0, 0, 1, 0, 0)" gradientUnits="userSpaceOnUse">
            <stop offset=".19" stop-color="#7c591d"/>
            <stop offset="1" stop-color="#8e7b28"/>
        </linearGradient>
        <linearGradient id="g" x1="849.08" y1="74.18" x2="918.82" y2="21.78"
                        gradientTransform="matrix(1, 0, 0, 1, 0, 0)" gradientUnits="userSpaceOnUse">
            <stop offset=".08" stop-color="#ad8431"/>
            <stop offset="1" stop-color="#f2ce38"/>
        </linearGradient>
        <linearGradient id="h" x1="859.82" y1="61.61" x2="917.08" y2="18.58" xlink:href="#e"/>
        <linearGradient id="i" x1="879.76" y1="43.76" x2="916.4" y2="16.23" xlink:href="#e"/>
        <linearGradient id="j" x1="837.58" y1="48.64" x2="928.55" y2="48.64" xlink:href="#f"/>
        <linearGradient id="k" x1="855.12" y1="48.35" x2="910.83" y2="48.35"
                        gradientTransform="matrix(1, 0, 0, 1, 0, 0)" gradientUnits="userSpaceOnUse">
            <stop offset="0" stop-color="#543a14"/>
            <stop offset=".22" stop-color="#583e13"/>
            <stop offset=".45" stop-color="#644a13"/>
            <stop offset=".68" stop-color="#795e13"/>
            <stop offset=".91" stop-color="#957a13"/>
            <stop offset="1" stop-color="#a38813"/>
        </linearGradient>
        <linearGradient id="l" x1="851.78" y1="48.63" x2="914.39" y2="48.63"
                        gradientTransform="matrix(1, 0, 0, 1, 0, 0)" gradientUnits="userSpaceOnUse">
            <stop offset="0" stop-color="#f2ce38"/>
            <stop offset=".17" stop-color="#d7b135"/>
            <stop offset="1" stop-color="#ad8431"/>
        </linearGradient>
        <linearGradient id="m" x1="837.07" y1="48.55" x2="929.1" y2="48.55" gradientTransform="matrix(1, 0, 0, 1, 0, 0)"
                        gradientUnits="userSpaceOnUse">
            <stop offset="0" stop-color="#ddb836"/>
            <stop offset="1" stop-color="#ad8431"/>
        </linearGradient>
        <linearGradient id="n" x1="861.69" y1="84.99" x2="903.24" y2="13.02" xlink:href="#k"/>
    </defs>
    <g id="a"/>
    <g id="b">
        <g id="c">
            <g>
                <path fill="white"
                      d="M91.65,8.85V88.29h-24.24V54.47H24.7v33.82H0V8.85H91.65ZM25.05,20.54v22.13h41.79V20.54H25.05Z"/>
                <path fill="white"
                      d="M198.78,88.29h-28.51l-43.52-48.8h40.86V20.54h-44.56V88.29h-24.47V8.85h92.81V51.18h-25.63l33.01,37.11Z"/>
                <path fill="white" d="M292.05,76.6l-10.39,11.69h-80.57V8.85h90.85l-10.27,11.69h-55.87v56.07h66.26Z"/>
                <path fill="white"
                      d="M386.82,8.85V88.29h-24.36V54.36h-41.79v33.94h-24.01V8.85h24.01V42.67h41.79V8.85h24.36Z"/>
                <path fill="white" d="M396.05,8.85h24.24V88.29h-24.24V8.85Z"/>
                <path fill="white"
                      d="M509.64,76.6l10.39,11.69h-90.5V8.85h90.73l-10.27,11.69h-56.22v22.25h41.06v11.69h-41.06v22.13h55.87Z"/>
                <path class="w"
                      d="M623.68,51.75l-66.49-42.9V88.29h24.13V45.05l66.14,43.24V8.85h-23.78V51.75Zm111.16-31.21l10.27-11.69h-90.73V88.29h90.5l-10.39-11.69h-55.87v-22.13h41.06v-11.69h-41.06V20.54h56.22Zm107.58-11.69h-27.36l-29.67,33.37h-11.66V8.85h-24.01V88.29h24.01V53.9h11.66l30.47,34.39h26.55l-35.09-40.52,35.09-38.93Z"/>
                <path class="x"
                      d="M654.39,30.31c7.83-1.23,15.92-2.4,24.24-3.46v-6.32h56.22l10.27-11.69h-90.73V30.31Zm-30.71,5.39c7.55-1.46,15.5-2.9,23.78-4.27V8.85h-23.78v26.86Zm191.39-26.86l-6.54,7.36c12.04-.43,21.21-.52,27.71-.5l6.19-6.86h-27.36Zm-65.33,10.9c8.61-.69,16.61-1.27,24.01-1.75V8.85h-24.01v10.9Zm-192.54,31.5c10.23-2.85,26.75-7.18,47.61-11.68l-47.61-30.72V51.24Z"/>
                <g>
                    <circle class="s" cx="883.08" cy="48.63" r="48.62"/>
                    <circle class="t" cx="883.08" cy="48.63" r="47.64"/>
                    <path class="v"
                          d="M908.6,8.4c-22.22-14.09-51.65-7.5-65.74,14.71-2.95,4.65-4.99,9.62-6.17,14.69,4.42,4.4,9.61,8.6,15.62,12.41,26.94,17.09,74.29,17.99,75.23,15.55,8.03-20.77,.58-44.99-18.94-57.37Z"/>
                    <path class="u"
                          d="M881.82,45.18c-22.22-14.09-25.46-37.16-16.52-40.75,13.74-5.51,29.84-4.56,43.29,3.97,16.31,10.34,24.19,28.95,21.66,46.9-.92,6.51-26.22,3.97-48.44-10.13Z"/>
                    <path class="aa"
                          d="M882.97,94.12c-8.53,0-16.89-2.41-24.26-7.09-10.26-6.5-17.37-16.61-20.02-28.47-2.65-11.85-.53-24.03,5.97-34.28,6.51-10.26,16.61-17.37,28.47-20.02,11.85-2.65,24.03-.53,34.28,5.97,10.26,6.51,17.37,16.61,20.02,28.47s.53,24.03-5.97,34.28l-.07-.05,.07,.05c-6.5,10.26-16.61,17.37-28.47,20.02-3.33,.75-6.69,1.11-10.02,1.11Zm.18-90.79c-3.32,0-6.66,.37-9.98,1.11-11.81,2.64-21.88,9.72-28.36,19.94-6.48,10.22-8.59,22.34-5.95,34.15,2.64,11.81,9.72,21.88,19.94,28.36,10.22,6.48,22.34,8.59,34.15,5.95,11.81-2.64,21.88-9.72,28.36-19.94,6.48-10.22,8.59-22.34,5.95-34.15-2.64-11.81-9.72-21.88-19.94-28.36-7.34-4.66-15.68-7.06-24.17-7.06Z"/>
                    <path class="ab"
                          d="M906.3,50.03v-.07l-.81-1c.04,.23,.07,.46,.1,.69l.35,.43c-.05,.66-.12,1.31-.22,1.96-.05,1.34-.33,2.52-.82,3.52-.16,.53-.35,1.04-.55,1.55,.18-.08,.33-.18,.48-.27,.79-2.14,1.3-4.42,1.47-6.8Zm-22.36-25.26h-1.94v1.17h1.94v-1.17Zm-21.6,15.1c.02-.15,.03-.33,.04-.51-.67,1.66-1.17,3.4-1.45,5.2v.08l.54,.67c.05-.12,.11-.25,.16-.36l-.33-.41c.22-1.36,.56-2.68,1-3.95,0-.24,0-.48,.04-.72Zm24.63-15.52v3.72c-.21-.04-.42-.08-.63-.12v-3.67h-1.9v.36h1.55v3.26c-.99-.15-2-.24-3.02-.24-1.09,0-2.16,.09-3.2,.26v-3.29h1.91v-.36h-2.26v3.71c-.19,.04-.38,.07-.57,.11v-3.73l-.21,.04c-2.55,.49-4.94,1.41-7.12,2.68,.1,.08,.21,.16,.31,.25,2.05-1.17,4.28-2.05,6.66-2.54v3.38c-.17,.04-.33,.08-.5,.13v-2.51l-.22,.05c-1.84,.45-3.6,1.16-5.26,2.07,.07,.06,.15,.12,.22,.19,.03,0,.06,.02,.09,.03,1.51-.81,3.12-1.45,4.82-1.89v2.16c-.23,.06-.45,.13-.67,.21v-1.24l-.23,.07c-1.02,.33-2.01,.74-2.96,1.22,.09,.06,.21,.14,.36,.23,.8-.39,1.62-.75,2.47-1.04v.87c-.55,.19-1.09,.41-1.62,.65,.13,.07,.27,.13,.42,.2,.4-.17,.8-.33,1.2-.47v.74c-.1,.04-.19,.08-.28,.12,.21,.08,.41,.15,.64,.23v-.1c.22-.08,.45-.15,.67-.22v.52c.12,.03,.23,.06,.36,.09v-.71c.17-.05,.33-.09,.5-.14v.94c.18,.03,.35,.08,.54,.1,.13,0,.37,0,.68,.01,1.07-.21,2.16-.33,3.27-.33,1,0,2,.1,2.97,.28,.61-.03,1.06-.06,1.39-.1v-.94c.18,.05,.36,.09,.55,.15v.72c.19-.03,.27-.05,.29-.06,.02,0,.04-.02,.06-.03v-.53c.22,.07,.43,.14,.64,.21,.14-.07,.28-.15,.45-.24v-.73c.26,.09,.52,.2,.77,.3,.13-.07,.26-.15,.4-.22-.39-.16-.78-.32-1.17-.46v-.86c.7,.23,1.38,.51,2.05,.82,.13-.07,.25-.14,.38-.22-.83-.39-1.68-.74-2.56-1.02l-.23-.07v1.23c-.24-.08-.49-.15-.73-.22v-2.15c1.57,.4,3.06,.97,4.47,1.68,.12-.07,.24-.14,.36-.21-1.57-.82-3.23-1.45-4.97-1.87l-.22-.05v2.51c-.18-.05-.36-.09-.55-.13v-3.38c2.34,.46,4.55,1.3,6.58,2.43,.12-.07,.24-.14,.36-.21-2.17-1.24-4.55-2.13-7.08-2.61l-.21-.04Zm-9.34,5.15c-.23,.07-.45,.14-.67,.22v-.73c.22-.07,.45-.14,.67-.21v.73Zm.85-.24c-.17,.04-.33,.09-.5,.13v-.72c.17-.04,.33-.09,.5-.13v.72Zm.93,1.11c-.19,.04-.38,.08-.57,.13v-.97c.19-.04,.38-.09,.57-.12v.96Zm0-1.32c-.19,.04-.38,.08-.57,.12v-.71c.19-.04,.38-.08,.57-.12v.7Zm6.58,1.22c-.99-.18-2-.27-3.02-.27-1.09,0-2.16,.11-3.2,.31v-.96c1.05-.19,2.12-.29,3.2-.29,1.02,0,2.03,.09,3.02,.26v.95Zm0-1.31c-.99-.17-2-.25-3.02-.25-1.09,0-2.16,.1-3.2,.28v-.71c1.05-.18,2.12-.27,3.2-.27,1.02,0,2.03,.08,3.02,.24v.71Zm.98,1.52c-.21-.05-.42-.1-.63-.14v-.96c.21,.04,.42,.08,.63,.13v.97Zm0-1.33c-.21-.05-.42-.09-.63-.13v-.71c.21,.04,.42,.08,.63,.12v.71Zm1.26-.4c.25,.07,.49,.15,.73,.23v.74c-.24-.08-.49-.16-.73-.24v-.73Zm-.9-.23c.18,.04,.36,.09,.55,.14v.72c-.18-.05-.36-.1-.55-.14v-.72Zm-5.33-1.04h1.94v-1.17h-1.94v1.17Zm23.93,28.76c.13-.03,.26-.06,.4-.07,.78-2.46,1.21-5.08,1.21-7.8,0-5.16-1.52-9.96-4.12-13.96-.04,.14-.1,.27-.17,.41,2.48,3.9,3.94,8.56,3.94,13.56,0,2.75-.44,5.39-1.25,7.87Zm-28.22,20.26c.55,.11,1.1,.2,1.66,.27,.04-.12,.1-.23,.15-.34-.64-.08-1.27-.18-1.9-.31,.03,.13,.06,.26,.09,.38Zm-14.14-7.57c.83,.83,1.71,1.6,2.63,2.32,.03-.13,.05-.26,.09-.39-.82-.64-1.61-1.34-2.35-2.07-.12,.04-.25,.1-.37,.14Zm35.74,2.2c.03,.13,.06,.25,.08,.38,1-.75,1.95-1.57,2.84-2.44-.12-.04-.25-.09-.37-.14-.81,.78-1.66,1.52-2.55,2.2Zm5.93-39.78c-.05,.14-.1,.27-.15,.39,3.38,4.68,5.39,10.47,5.39,16.73s-1.96,11.91-5.27,16.56c.12,.04,.24,.08,.35,.11,3.31-4.69,5.27-10.45,5.27-16.68s-2.08-12.35-5.59-17.13Zm-46.78,25.11c.1-.06,.21-.11,.32-.15-.78-2.48-1.21-5.12-1.21-7.86,0-5.44,1.66-10.48,4.49-14.65-.1-.06-.2-.13-.29-.2-2.87,4.22-4.56,9.34-4.56,14.85,0,2.8,.44,5.49,1.24,8.02Zm1.22-.28c.13,.01,.27,.03,.4,.07-.81-2.48-1.25-5.12-1.25-7.87,0-4.97,1.43-9.59,3.89-13.48-.07-.13-.13-.26-.17-.4-2.57,3.98-4.07,8.75-4.07,13.88,0,2.72,.43,5.35,1.21,7.8Zm.63-6.97l-.68,.7v.08c.17,2.38,.69,4.67,1.48,6.82,.15,.09,.3,.18,.47,.26-.13-.33-.25-.65-.36-.99-.77-1.26-1.16-2.87-1.12-4.75,0-.08,.01-.16,.01-.24-.04-.35-.09-.7-.12-1.06l.23-.24c.03-.2,.05-.4,.08-.6Zm46.77,7.05c.11,.03,.22,.08,.33,.13,.79-2.51,1.22-5.18,1.22-7.95,0-5.53-1.7-10.66-4.58-14.89-.09,.08-.19,.14-.29,.2,2.85,4.17,4.52,9.23,4.52,14.69,0,2.72-.42,5.35-1.19,7.82Zm-2.69-10.92l.62-.76v-.08c-.31-1.88-.84-3.69-1.57-5.42,.01,.28,.03,.54,.06,.76,.02,.14,.02,.27,.02,.41,.49,1.35,.88,2.76,1.11,4.23l-.4,.5c.06,.12,.11,.24,.16,.36Zm3.7,11.58c.1,.12,.18,.25,.25,.38,.93-2.78,1.44-5.76,1.44-8.85,0-5.94-1.86-11.45-5-15.95-.06,.13-.1,.23-.14,.31-.01,.02-.03,.04-.04,.07,3.03,4.41,4.82,9.78,4.82,15.58,0,2.96-.47,5.81-1.33,8.47Zm-1.73,4.17c-.65,1.26-1.39,2.46-2.22,3.59,.11,.04,.23,.09,.35,.13,.93-1.28,1.75-2.65,2.45-4.09-.18,.12-.37,.25-.58,.37Zm-37.76-35.81c.12,.06,.24,.13,.35,.19,4.07-2.62,8.87-4.14,14.02-4.14s9.89,1.5,13.94,4.09c.12-.06,.24-.13,.35-.19-4.14-2.69-9.04-4.25-14.29-4.25s-10.22,1.58-14.37,4.31Zm9.37,49.8c-.19-.04-.38-.08-.57-.12,.02,.13,.04,.25,.07,.38,.36,.08,.72,.14,1.08,.2-.2-.15-.38-.31-.57-.47Zm22.78-6.57c-.56,.52-1.14,1.02-1.75,1.49,.04,.12,.07,.25,.11,.37,.7-.54,1.36-1.11,2-1.72-.12-.05-.24-.09-.37-.14Zm-43.12-11.14c.07-.14,.15-.27,.24-.39-.87-2.68-1.34-5.55-1.34-8.52,0-5.74,1.75-11.07,4.74-15.46-.03-.05-.07-.1-.1-.16-.02-.05-.05-.12-.09-.2-3.09,4.48-4.91,9.93-4.91,15.82,0,3.12,.52,6.12,1.46,8.92Zm7.06,11.15c.58,.56,1.19,1.09,1.82,1.59,.04-.12,.07-.25,.11-.37-.54-.43-1.06-.89-1.56-1.36-.12,.05-.24,.09-.36,.14Zm2.86-43.78l.04,.02c.11,.05,.21,.11,.32,.17,4.33-2.92,9.5-4.62,15.06-4.62s10.67,1.68,14.98,4.57c.09-.05,.18-.09,.27-.14l.1-.05c-4.4-2.99-9.68-4.74-15.34-4.74s-11.01,1.77-15.43,4.79Zm-6.78,7.15c-.05-.12-.1-.26-.16-.4-3.45,4.75-5.49,10.63-5.49,17s1.92,11.86,5.17,16.53c.12-.04,.24-.07,.35-.11-3.25-4.63-5.17-10.3-5.17-16.42s1.97-11.94,5.29-16.6Zm-1.79,28.78c.68,1.41,1.48,2.75,2.38,4,.11-.04,.23-.08,.35-.12-.79-1.1-1.51-2.27-2.13-3.49-.22-.13-.42-.26-.59-.39Zm33.78,14.15c-.01,.13-.03,.27-.05,.4,.14-.05,.27-.11,.41-.16-.04-.11-.08-.22-.12-.33-.08,.03-.16,.07-.24,.1Zm-20.16-.23c-.04,.11-.08,.23-.12,.33,.14,.06,.29,.12,.43,.17-.02-.13-.03-.27-.04-.4-.09-.04-.18-.07-.27-.11Zm30.47-12.36c-.36,.55-.74,1.07-1.14,1.59,.11,.05,.22,.1,.33,.15,.45-.59,.88-1.2,1.29-1.83-.16,.04-.31,.07-.48,.1Zm-32.31-35.65c.1,.07,.21,.15,.31,.22,3.52-2.06,7.59-3.25,11.92-3.25s8.28,1.16,11.77,3.17c.08-.05,.16-.1,.24-.14,.04-.03,.08-.05,.12-.07-3.58-2.1-7.72-3.3-12.12-3.3s-8.63,1.24-12.24,3.39Zm-8.29,16.5l-.02,.07,.1,.16c.07-.11,.14-.22,.21-.33-.06-.14-.1-.29-.15-.44-.05,.18-.1,.36-.15,.54Zm41.04,.27l-.02-.08c-.07-.31-.16-.61-.24-.91-.06,.21-.13,.41-.2,.61,.12,.17,.24,.36,.35,.54l.11-.15Zm-42.8,18.27c.53,.92,1.11,1.81,1.74,2.65,.11-.04,.23-.09,.34-.14-.56-.75-1.09-1.52-1.57-2.33-.18-.06-.35-.12-.51-.19Zm44.27-14.64c.04,.13,.08,.27,.11,.4l1.26-1.37v-.08c-.32-3.38-1.34-6.57-2.88-9.41-.01,.18-.02,.41-.04,.67,1.36,2.66,2.25,5.59,2.55,8.7l-1.01,1.09Zm-3.84,16.49c.27-.35,.54-.71,.79-1.07-.15,.02-.3,.03-.46,.05-.09,.12-.17,.24-.26,.36-.08,.17-.18,.34-.3,.49,.01,.03,.02,.06,.03,.08,.07,.03,.13,.06,.2,.09Zm-38.79-26.77c-1.49,2.8-2.47,5.92-2.77,9.23v.08l1.18,1.29c.04-.13,.07-.27,.11-.4l-.93-1.01c.29-3.03,1.14-5.9,2.45-8.51-.01-.25-.02-.48-.03-.68Zm42.22,25.17c-.5,.83-1.04,1.62-1.62,2.38,.11,.05,.23,.1,.34,.14,.65-.86,1.25-1.76,1.79-2.7-.16,.06-.33,.12-.51,.18Zm-34.77-35.89c.12,.07,.23,.14,.35,.21,3.75-2.24,8.12-3.53,12.77-3.53s8.99,1.28,12.73,3.51c.12-.07,.23-.14,.34-.21-3.83-2.32-8.3-3.65-13.08-3.65s-9.28,1.34-13.12,3.68Zm29.68,42c-.3,.26-.6,.52-.91,.77,.04,.12,.09,.23,.13,.35,.39-.31,.77-.63,1.14-.96-.12-.05-.24-.1-.36-.16Zm-33.6,.05c.33,.3,.68,.59,1.03,.88,.04-.12,.08-.23,.13-.35-.27-.22-.53-.45-.8-.68-.12,.06-.24,.1-.36,.16Zm-2.28-4.23c.11-.05,.22-.1,.33-.15-.35-.46-.69-.93-1.01-1.41-.16-.03-.32-.06-.48-.09,.36,.57,.75,1.12,1.15,1.66Z"/>
                    <path class="ac"
                          d="M883.1,79.37v-.71c1.37,0,2.76-.1,4.13-.29l.1,.7c-1.4,.2-2.82,.3-4.23,.3Zm-3.18-.16c-1.4-.14-2.81-.39-4.18-.73l.17-.69c1.34,.33,2.71,.57,4.08,.71l-.07,.71Zm10.53-.74l-.17-.69c1.34-.33,2.66-.76,3.94-1.27l.26,.66c-1.31,.52-2.67,.96-4.04,1.3Zm-17.75-.91c-1.16-.42-2.31-.91-3.41-1.47-.16-.08-.31-.16-.47-.24l.33-.63c.15,.08,.3,.16,.45,.23,1.08,.54,2.21,1.03,3.34,1.43l-.24,.67Zm24.68-1.72l-.33-.63c1.22-.64,2.41-1.37,3.53-2.17l.41,.58c-1.15,.82-2.36,1.57-3.61,2.22Zm-31.29-1.61c-1.18-.78-2.31-1.65-3.36-2.58l.47-.53c1.03,.91,2.14,1.76,3.29,2.52l-.39,.59Zm37.39-2.6l-.47-.53c1.03-.91,2.01-1.91,2.9-2.95l.54,.46c-.92,1.07-1.91,2.09-2.97,3.03Zm-43.03-2.21c-.95-1.04-1.84-2.15-2.64-3.32l.58-.4c.78,1.14,1.65,2.22,2.58,3.24l-.52,.48Zm47.94-3.34l-.59-.4c.78-1.13,1.49-2.33,2.11-3.57v-.03l.65,.32v.02c-.65,1.27-1.37,2.5-2.17,3.65Zm-52.25-2.69c-.68-1.24-1.27-2.53-1.77-3.85l.66-.25c.49,1.29,1.07,2.55,1.73,3.76l-.62,.34Zm55.7-3.9l-.66-.25c.49-1.29,.89-2.62,1.2-3.96l.69,.16c-.31,1.37-.73,2.74-1.23,4.06Zm-58.45-2.98c-.36-1.36-.63-2.76-.81-4.16l.71-.09c.17,1.37,.43,2.73,.79,4.07l-.69,.18Zm60.22-4.21l-.71-.08c.14-1.18,.21-2.37,.21-3.56,0-.19,0-.38,0-.57h.71c0,.18,0,.38,0,.57,0,1.22-.07,2.44-.22,3.65Zm-61.25-3.12c0-.19,0-.38,0-.57,0-1.22,.07-2.45,.22-3.66l.71,.09c-.14,1.18-.21,2.38-.21,3.58,0,.19,0,.37,0,.56h-.71Zm60.53-4.19c-.17-1.37-.43-2.73-.79-4.07l.69-.18c.36,1.36,.63,2.76,.81,4.16l-.71,.09Zm-59.07-3.01l-.69-.16c.31-1.37,.73-2.74,1.23-4.06l.66,.25c-.49,1.29-.89,2.62-1.2,3.96Zm57.33-4.01c-.49-1.29-1.07-2.55-1.73-3.76l.62-.34c.68,1.24,1.27,2.53,1.77,3.85l-.66,.25Zm-54.88-2.81l-.64-.3v-.02c.64-1.26,1.36-2.48,2.16-3.63l.59,.4c-.77,1.13-1.48,2.32-2.1,3.55Zm51.51-3.6c-.78-1.13-1.65-2.22-2.58-3.24l.52-.48c.95,1.04,1.84,2.15,2.64,3.31l-.58,.4Zm-47.52-2.42l-.54-.46c.91-1.07,1.91-2.09,2.97-3.03l.47,.53c-1.03,.91-2.01,1.91-2.9,2.96Zm42.72-2.99c-1.03-.91-2.14-1.76-3.29-2.52l.39-.59c1.18,.78,2.31,1.65,3.37,2.58l-.47,.53Zm-37.39-1.9l-.41-.58c1.15-.82,2.36-1.57,3.61-2.22l.33,.63c-1.22,.64-2.41,1.37-3.53,2.17Zm31.42-2.19c-.15-.08-.29-.15-.44-.23-1.09-.55-2.21-1.03-3.35-1.44l.24-.67c1.16,.42,2.32,.91,3.43,1.47,.15,.08,.3,.15,.45,.23l-.33,.63Zm-25.07-1.28l-.26-.66c1.31-.52,2.67-.96,4.04-1.3l.17,.69c-1.34,.33-2.66,.76-3.94,1.27Zm18.31-1.29c-1.34-.33-2.71-.57-4.08-.71l.07-.71c1.4,.14,2.81,.39,4.18,.73l-.17,.69Zm-11.31-.57l-.1-.7c1.4-.2,2.82-.3,4.23-.3v.71c-1.37,0-2.76,.1-4.13,.29Z"/>
                    <path class="p"
                          d="M883.1,79.93v-.71c1.4,0,2.82-.1,4.21-.3l.1,.7c-1.42,.2-2.87,.3-4.31,.3Zm-3.24-.17c-1.43-.15-2.86-.4-4.25-.74l.17-.69c1.36,.34,2.76,.58,4.16,.72l-.07,.71Zm10.72-.75l-.17-.69c1.36-.34,2.71-.77,4.02-1.29l.26,.66c-1.33,.53-2.72,.98-4.11,1.32Zm-18.08-.93c-1.18-.43-2.35-.93-3.48-1.5-.16-.08-.32-.16-.47-.24l.33-.63c.15,.08,.31,.16,.46,.24,1.1,.55,2.25,1.05,3.4,1.46l-.24,.67Zm25.13-1.75l-.33-.63c1.24-.65,2.45-1.4,3.59-2.21l.41,.58c-1.17,.83-2.4,1.6-3.68,2.26Zm-31.87-1.64c-1.2-.79-2.35-1.68-3.43-2.63l.47-.53c1.05,.93,2.18,1.79,3.35,2.57l-.39,.59Zm38.08-2.64l-.47-.53c1.05-.93,2.04-1.94,2.96-3.01l.54,.46c-.93,1.09-1.95,2.13-3.03,3.08Zm-43.82-2.26c-.97-1.06-1.88-2.19-2.69-3.38l.58-.4c.8,1.16,1.68,2.27,2.63,3.3l-.52,.48Zm48.82-3.4l-.59-.4c.79-1.15,1.52-2.37,2.15-3.63l.65,.29h0c-.65,1.31-1.39,2.56-2.2,3.74Zm-53.21-2.74c-.69-1.26-1.3-2.58-1.81-3.92l.66-.25c.5,1.31,1.09,2.6,1.76,3.83l-.62,.34Zm56.72-3.97l-.66-.25c.5-1.31,.91-2.67,1.22-4.04l.69,.16c-.32,1.4-.74,2.79-1.25,4.13Zm-59.52-3.03c-.37-1.39-.64-2.81-.82-4.24l.71-.09c.17,1.39,.44,2.79,.8,4.14l-.69,.18Zm61.32-4.29l-.71-.08c.14-1.2,.22-2.42,.22-3.63,0-.2,0-.39,0-.59h.71c0,.19,0,.39,0,.59,0,1.24-.07,2.49-.22,3.71Zm-62.37-3.18c0-.19,0-.39,0-.58,0-1.24,.08-2.5,.22-3.73l.71,.09c-.15,1.2-.22,2.43-.22,3.64,0,.19,0,.38,0,.57h-.71Zm61.65-4.26c-.17-1.39-.44-2.79-.8-4.14l.69-.18c.37,1.39,.65,2.81,.82,4.24l-.71,.09Zm-60.19-3.07l-.69-.16c.32-1.4,.74-2.79,1.25-4.13l.66,.25c-.5,1.31-.91,2.67-1.22,4.04Zm58.41-4.09c-.5-1.31-1.09-2.6-1.77-3.83l.62-.34c.69,1.26,1.3,2.58,1.81,3.92l-.66,.25Zm-55.91-2.86l-.64-.3v-.02c.65-1.28,1.39-2.53,2.2-3.7l.59,.4c-.79,1.15-1.51,2.37-2.14,3.62Zm52.48-3.67c-.8-1.16-1.68-2.27-2.63-3.3l.52-.48c.97,1.06,1.88,2.19,2.69,3.37l-.58,.4Zm-48.41-2.47l-.54-.46c.93-1.09,1.95-2.13,3.02-3.08l.47,.53c-1.05,.93-2.04,1.94-2.95,3.01Zm43.52-3.05c-1.05-.93-2.18-1.79-3.35-2.57l.39-.59c1.2,.79,2.35,1.68,3.43,2.63l-.47,.53Zm-38.09-1.94l-.41-.58c1.17-.84,2.4-1.6,3.68-2.26l.33,.63c-1.24,.65-2.45,1.4-3.59,2.21Zm32.01-2.24c-.15-.08-.3-.15-.45-.23-1.11-.56-2.26-1.05-3.41-1.47l.24-.67c1.18,.43,2.36,.93,3.49,1.5,.15,.08,.31,.16,.46,.24l-.33,.63Zm-25.55-1.3l-.26-.66c1.33-.53,2.72-.98,4.11-1.32l.17,.69c-1.36,.34-2.71,.77-4.02,1.29Zm18.65-1.31c-1.36-.34-2.76-.58-4.16-.72l.07-.71c1.43,.15,2.86,.4,4.25,.74l-.17,.69Zm-11.53-.58l-.1-.7c1.42-.2,2.87-.3,4.31-.31v.71c-1.4,0-2.82,.1-4.21,.3Z"/>
                    <path class="ac"
                          d="M886.92,93.88l-.06-.71c1.5-.13,3.01-.33,4.49-.61l.13,.7c-1.5,.28-3.04,.49-4.56,.62Zm-7.79,0c-1.53-.13-3.06-.34-4.56-.63l.13-.7c1.48,.28,2.99,.49,4.49,.62l-.06,.71Zm19.85-2.71l-.25-.67c1.41-.53,2.81-1.13,4.16-1.8l.31,.64c-1.37,.68-2.79,1.29-4.23,1.83Zm-31.91-.03c-1.43-.54-2.85-1.16-4.22-1.84l.32-.64c1.35,.67,2.75,1.28,4.15,1.82l-.25,.66Zm42.8-5.83l-.42-.57c1.22-.89,2.4-1.85,3.52-2.86l.48,.53c-1.14,1.02-2.34,2-3.58,2.9Zm-53.67-.07c-1.24-.91-2.44-1.88-3.57-2.91l.48-.53c1.12,1.01,2.3,1.97,3.52,2.86l-.42,.57Zm62.57-8.52l-.56-.44c.93-1.18,1.81-2.43,2.62-3.7l.02-.03,.6,.38-.02,.03c-.82,1.29-1.71,2.56-2.66,3.76Zm-71.45-.08c-.94-1.2-1.84-2.47-2.65-3.77l.6-.38c.8,1.28,1.68,2.52,2.61,3.71l-.56,.44Zm77.72-10.62l-.66-.27c.58-1.39,1.09-2.83,1.52-4.27l.68,.2c-.44,1.46-.96,2.92-1.55,4.34Zm-83.95-.07c-.58-1.41-1.1-2.88-1.54-4.34l.68-.2c.43,1.44,.94,2.88,1.51,4.27l-.66,.27Zm87.08-11.89l-.71-.08c.18-1.5,.28-3.02,.31-4.52h.71c-.03,1.54-.13,3.09-.31,4.61Zm-90.2-.07c-.18-1.52-.29-3.07-.31-4.59h.71c.03,1.49,.13,3.01,.31,4.51l-.71,.08Zm89.27-12.18c-.23-1.49-.54-2.98-.92-4.44l.69-.18c.39,1.48,.7,3,.93,4.51l-.7,.11Zm-88.35-.07l-.7-.11c.24-1.51,.55-3.03,.94-4.51l.69,.18c-.38,1.46-.69,2.95-.93,4.44Zm84.87-11.59c-.62-1.37-1.32-2.73-2.08-4.03l.61-.36c.77,1.32,1.48,2.7,2.11,4.09l-.65,.29Zm-81.37-.06l-.65-.3c.64-1.39,1.35-2.76,2.13-4.08l.61,.36c-.76,1.3-1.47,2.66-2.09,4.02Zm74.87-10.23c-.97-1.15-2.01-2.27-3.1-3.31l.49-.51c1.1,1.06,2.16,2.2,3.15,3.37l-.54,.46Zm-68.36-.05l-.54-.46c.99-1.17,2.05-2.31,3.14-3.37l.49,.51c-1.08,1.05-2.12,2.16-3.1,3.32Zm59.31-8.1c-.4-.27-.81-.54-1.22-.8-.87-.55-1.76-1.07-2.66-1.56l.34-.62c.91,.49,1.82,1.03,2.7,1.59,.41,.26,.83,.54,1.23,.81l-.4,.59Zm-50.27-.05l-.4-.59c1.27-.86,2.59-1.66,3.94-2.39l.34,.63c-1.33,.71-2.63,1.51-3.88,2.35Zm39.37-5.38c-1.43-.48-2.9-.89-4.36-1.23l.16-.69c1.49,.34,2.98,.76,4.43,1.25l-.23,.67Zm-28.45-.01l-.23-.67c1.45-.48,2.94-.9,4.44-1.24l.16,.69c-1.47,.33-2.94,.74-4.37,1.22Zm11.96-2.26l-.04-.71c1.52-.08,3.08-.08,4.61,0l-.04,.71c-1.5-.08-3.03-.08-4.53,0Z"/>
                    <path class="q"
                          d="M886.97,94.49l-.06-.71c1.52-.13,3.05-.34,4.55-.62l.13,.7c-1.52,.29-3.08,.5-4.62,.63Zm-7.89,0c-1.55-.13-3.1-.35-4.62-.64l.13-.7c1.5,.29,3.03,.5,4.55,.63l-.06,.71Zm20.12-2.75l-.25-.67c1.43-.53,2.85-1.15,4.22-1.82l.31,.64c-1.39,.69-2.83,1.31-4.29,1.85Zm-32.34-.03c-1.45-.55-2.89-1.18-4.28-1.87l.32-.64c1.37,.68,2.78,1.3,4.21,1.84l-.25,.66Zm43.38-5.91l-.42-.57c1.23-.9,2.43-1.87,3.57-2.9l.48,.53c-1.15,1.04-2.37,2.03-3.63,2.94Zm-54.39-.07c-1.25-.92-2.47-1.91-3.62-2.94l.48-.53c1.13,1.02,2.33,2,3.56,2.9l-.42,.57Zm63.41-8.64l-.56-.44c.94-1.2,1.83-2.46,2.65-3.75l.02-.03,.6,.38-.02,.03c-.83,1.31-1.74,2.59-2.69,3.81Zm-72.41-.08c-.96-1.22-1.86-2.51-2.69-3.82l.6-.38c.81,1.29,1.7,2.56,2.65,3.76l-.56,.44Zm78.77-10.76l-.66-.27c.59-1.41,1.11-2.87,1.55-4.33l.68,.2c-.45,1.48-.97,2.96-1.57,4.4Zm-85.07-.07c-.59-1.43-1.11-2.91-1.56-4.4l.68-.2c.44,1.46,.95,2.92,1.53,4.33l-.66,.27Zm88.25-12.05l-.71-.08c.18-1.52,.29-3.06,.31-4.58h.71c-.03,1.56-.13,3.13-.32,4.67Zm-91.4-.08c-.18-1.54-.29-3.11-.32-4.66h.71c.03,1.51,.13,3.06,.31,4.57l-.71,.08Zm90.48-12.35c-.23-1.51-.55-3.02-.93-4.5l.69-.18c.39,1.5,.71,3.04,.95,4.57l-.7,.11Zm-89.56-.08l-.7-.11c.24-1.53,.56-3.07,.95-4.57l.69,.18c-.39,1.48-.7,2.99-.94,4.5Zm86.03-11.75c-.63-1.39-1.34-2.77-2.11-4.08l.61-.36c.78,1.34,1.5,2.74,2.14,4.15l-.65,.29Zm-82.48-.06l-.65-.3c.64-1.41,1.37-2.8,2.15-4.14l.61,.36c-.77,1.32-1.49,2.69-2.12,4.08Zm75.89-10.37c-.98-1.17-2.04-2.3-3.14-3.36l.49-.51c1.12,1.08,2.19,2.23,3.19,3.41l-.54,.46Zm-69.29-.05l-.54-.46c1-1.19,2.07-2.34,3.19-3.41l.49,.51c-1.1,1.06-2.15,2.19-3.14,3.36Zm60.12-8.21c-.41-.28-.82-.55-1.23-.81-.88-.56-1.78-1.09-2.69-1.58l.34-.62c.92,.5,1.84,1.04,2.73,1.61,.42,.27,.84,.54,1.25,.82l-.4,.59Zm-50.95-.05l-.4-.59c1.28-.87,2.63-1.68,3.99-2.42l.34,.63c-1.35,.72-2.67,1.53-3.93,2.38Zm39.91-5.45c-1.45-.49-2.93-.91-4.42-1.24l.16-.69c1.51,.34,3.02,.77,4.49,1.26l-.23,.67Zm-28.84-.01l-.23-.67c1.47-.49,2.98-.91,4.5-1.25l.16,.69c-1.49,.34-2.98,.75-4.43,1.23Zm12.13-2.29l-.04-.71c1.54-.08,3.12-.08,4.67,0l-.04,.71c-1.53-.08-3.07-.08-4.6,0Z"/>
                    <path class="y"
                          d="M845.85,50.83l1.04,2.75,.78-2.84,2.94-.13-2.46-1.62,.78-2.84-2.3,1.84-2.46-1.62,1.04,2.75-2.3,1.84,2.94-.13Zm5.13,11.58l1.61-2.46-2.75,1.05-1.85-2.29,.15,2.94-2.75,1.05,2.84,.77,.15,2.94,1.61-2.46,2.84,.77-1.85-2.29Zm7.01,7.61l-2.75,1.05-1.85-2.29,.15,2.94-2.75,1.05,2.84,.77,.15,2.94,1.61-2.46,2.84,.77-1.85-2.29,1.61-2.46Zm66.33-23.54l-2.87,.66-1.51-2.53-.26,2.93-2.87,.66,2.71,1.16-.26,2.93,1.94-2.22,2.71,1.16-1.51-2.53,1.94-2.22Zm-5.47,11.99l-1.53-2.51-.24,2.93-2.86,.68,2.72,1.13-.24,2.93,1.92-2.23,2.72,1.13-1.53-2.51,1.92-2.23-2.86,.68Zm-4.24,9.83l-2.56,1.45-2.17-1.99,.58,2.88-2.56,1.45,2.92,.34,.58,2.88,1.22-2.68,2.92,.34-2.17-1.99,1.22-2.68Zm-44.53-50.46l-1.05-2.95,3.58-1.27,1.05,2.95,2.08-.74-2.45-6.92-2.08,.74,1.04,2.94-3.58,1.27-1.04-2.94-2.05,.73,2.45,6.92,2.05-.73Zm-18.02,18.06l-2.81-1.37,1.7-3.48,2.81,1.37,.97-1.98-6.59-3.23-3.66,7.47,6.59,3.23,.99-2.01Zm-5.61-2.78l1.67-3.41,1.84,.9-1.67,3.41-1.84-.9Zm32.25-17.58l-1.2-7.24-2.17,.36,1.2,7.24,2.17-.36Zm33.5,16.45l2.86,5.88,6.6-3.21-3.64-7.48-4.78,2.32-1.04,2.49Zm2.42-.72l3.38-1.65,1.72,3.54-4.66,2.26-1.18-2.42,.73-1.74Zm-27.91-17.04l-5.07-.05,.02-2.04,5.54,.06v-1.08l-5.53-.06,.02-2.05,5.1,.05,.94-1.07-8.24-.08-.07,7.34,8.22,.08-.93-1.09Zm14.62,5.11l1.16-1.68,4.56,3.15,.61-.89-4.56-3.15,1.17-1.69,4.2,2.9,1.38-.36-6.78-4.69-4.17,6.03,6.76,4.68-.16-1.42-4.17-2.89Zm9.02,4.86l-.6,4.17,1.57,1.83,.76-4.86,4.8,.07-1.62-1.88-4.09-.03-.69-.8,2.34-2.01-1.42-1.65-5.56,4.79,1.42,1.65,2.41-2.07,.69,.8Zm-43.14-6.44l-4.99,3.36-2.89-4.29,4.21-2.83,.17-1.42-6.84,4.61,4.1,6.08,6.07-4.09,.18-1.42Zm-9.34,3.7l-2.95-2.56-5.53,6.36,5.54,4.81,1.46-1.68-4.72-4.11,2.65-3.05,1.32,1.15-2.43,2.8,5.99-.02,1.7-1.95h-4.55l1.53-1.74Zm36.4-8.52l4.25,5.83,2.54-6.88-2.03-.75-1.37,3.72-4.29-5.81-2.54,6.88,2.05,.76,1.38-3.75Zm-17.02,69.22l-1.22,1.24-.39,5.65,1.04,1.42,7.09,.49,1.21-1.26,.39-5.65-1.03-1.39-7.09-.49Zm5.33,6.77l-.64,.67-3.26-.22-.56-.75,.31-4.49,.65-.65,3.26,.22,.55,.73-.31,4.49Zm13.2-8.96l2.22,.07,3.77,7.31,1.1-3.26-3.17-6.14-3.92,2.02Zm-28.98-1.5l.52,1.53,4.51,1.8,.27,.76-.64,1.59-5.72-2.28-1.77,4.44,7.33,2.92,1.45-.74-5.98-2.39,.86-2.17,5.68,2.27,1.28-3.21-.56-1.65-7.24-2.89Zm23.28,8.14l5.94-1.44-.82-3.35-1.41-1.02-7.58,1.84,1.31,.94,4.72-1.15,.66,.46,.4,1.67-5.98,1.45,1.13,4.65,7.67-1.86,.75-1.44-6.26,1.52-.55-2.27Z"/>
                    <path class="o"
                          d="M930.54,53.09l-.35-.03c1.59-17.79-6.79-34.78-21.86-44.33-11.95-7.58-26.53-9.43-40.01-5.09l-.11-.34c13.58-4.38,28.27-2.51,40.3,5.12,7.55,4.79,13.59,11.56,17.45,19.58,3.76,7.8,5.34,16.47,4.57,25.08Z"/>
                    <path class="r"
                          d="M879.39,49.73s-.62-3.23-2.76-3.8c-2.14-.56-3.86,.4-6.14,2.9l.77,.34s1.64,2.82,3.85,3.2c2.21,.39,3.9-1.58,4.28-1.59s.47,.43,0,.79c-.47,.36-.95,2.79-.95,2.79,0,0,1.16-2.26,1.78-3,.62-.74-.83-1.63-.83-1.63Zm-4.28,1.99c-2.53-.24-3.16-3.06-3.16-3.06,0,0,1.04-1.99,3.49-2.4,2.45-.42,3.16,3.35,3.16,3.35,0,0-.95,2.34-3.48,2.11Zm.18,7.33c-.26,0-.47,.21-.47,.47s.21,.47,.47,.47,.47-.21,.47-.47-.21-.47-.47-.47Zm.81-.73c.26,0,.47-.21,.47-.47s-.21-.47-.47-.47-.47,.21-.47,.47,.21,.47,.47,.47Zm22.6,6.27c.1-.19,.19-.37,.27-.55,0,0-.12,.2-.35,.51-.53-.27-1.03-.54-1.52-.82-.1-.21-.15-.66,.86-1.15l1.37-.67s-2.52,.41-4.34,.58c-2.36-1.47-3.84-2.65-3.84-2.65,0,0,1.42,1.58,4.14,3.42-.4,.18-1.25,.49-2.16,.39-2.15-2.57-4.24-3.99-4.24-3.99,0,0,2.1,1.86,3.8,3.91l-1.08-.2s1.19,1.62,1.62,1.98c.29,.23-.54,.35-1.36,.34-1.27-2.33-2.37-3.86-2.79-4.42,.09-.09,.14-.2,.14-.33,0-.26-.21-.47-.47-.47s-.47,.21-.47,.47,.21,.47,.47,.47c.12,0,.22-.04,.3-.11,.88,1.48,1.67,2.95,2.38,4.38-.26-.02-.49-.05-.66-.09-.75-.2,.16,.59,.16,.59,0,0-.51,.06-1.28,.07-.76-2.55-1.63-4.34-1.63-4.34,.65,1.65,1.1,3.07,1.43,4.34-1.19,0-2.87-.13-4.22-.74,0,0,1.04,1.06,4.37,1.37,.27,1.14,.45,2.15,.58,3.06-.61,.04-1.24,.02-1.89-.09-1.77-.29-3.02-.77-3.92-1.3,0,0,.66,2.04,4.79,2.18-.8,.92-3.59,3.94-5.58,4.01v-.34c0-.11-.09-.19-.19-.19s-.19,.09-.19,.19v.32c-2.13-.16-3.72-1.78-5.82-4.06,3.28-.39,3.83-2.11,3.83-2.11-.89,.53-2.15,1-3.92,1.3-.64,.11-1.26,.13-1.86,.09,.13-.93,.3-1.94,.58-3.09,3.12-.34,4.1-1.34,4.1-1.34-1.25,.57-2.79,.72-3.95,.74,.33-1.28,.79-2.71,1.44-4.37,0,0-.88,1.8-1.64,4.37-.91,0-1.54-.07-1.54-.07,0,0,.91-.79,.16-.59-.12,.03-.29,.06-.47,.08,.7-1.4,1.47-2.84,2.32-4.28,.08,.08,.19,.13,.32,.13,.26,0,.47-.21,.47-.47s-.21-.47-.47-.47-.47,.21-.47,.47c0,.12,.05,.23,.12,.31-.46,.61-1.52,2.11-2.73,4.34-.87,.03-1.85-.09-1.54-.34,.44-.36,1.62-1.98,1.62-1.98l-.88,.16c1.7-2.04,3.77-3.88,3.77-3.88,0,0-2.08,1.41-4.22,3.96h0c-.91,.17-1.78-.12-2.25-.32,2.89-1.93,4.41-3.64,4.41-3.64,0,0-1.59,1.28-4.09,2.84-1.83-.16-4.46-.59-4.46-.59l1.37,.67c1.36,.67,.79,1.26,.78,1.27-.4,.22-.81,.44-1.24,.66-.21-.3-.32-.48-.32-.48,.07,.17,.16,.34,.25,.51-3.17,1.62-6.97,3.1-10.74,3.41,0,0,3.46,.87,10.48-2.61,.19-.09,.37-.19,.55-.28,.59,.94,1.42,1.93,2.42,2.82-.81,1.64-1.43,3.49-1.67,5.53,0,0,.56-2.38,1.98-5.27,.59,.49,1.23,.95,1.91,1.33-1.19,2.77-2.31,6.14-2.96,9.95,0,0,1.02-4.17,3.38-9.72,.88,.46,1.82,.79,2.78,.94-.33,2.68-.19,5.53,1.08,7.89,0,0-1.23-3.64-.95-6.17,.06-.53,.12-1.09,.19-1.67,.31,.03,.61,.05,.92,.04,.11,0,.22,0,.32-.01,.83,.99,4,4.57,6.62,4.72v.2c-.44,.06-.79,.36-.94,.77-.64,.36-1.08,1.05-1.08,1.83,0,1.16,.94,2.1,2.1,2.1s2.1-.94,2.1-2.1c0-.73-.37-1.37-.93-1.75-.11-.42-.45-.75-.88-.84v-.21c2.43-.19,5.36-3.47,6.39-4.73,.1,0,.2-.02,.31-.03,.07,.6,.13,1.16,.19,1.7,.28,2.53-.95,6.17-.95,6.17,1.28-2.36,1.41-5.23,1.08-7.92,.93-.15,1.84-.47,2.7-.91,2.35,5.53,3.37,9.7,3.37,9.7-.64-3.8-1.76-7.15-2.95-9.92,.67-.38,1.31-.83,1.9-1.32,1.41,2.87,1.96,5.23,1.96,5.23-.23-2.03-.85-3.86-1.65-5.49,1.01-.89,1.85-1.88,2.45-2.82,.27,.14,.55,.29,.84,.43,7.13,3.48,10.65,2.61,10.65,2.61-3.94-.32-7.92-1.88-11.19-3.56Zm-28.9,2.94c-1.09-.89-1.93-1.85-2.47-2.53,.69-.36,1.33-.73,1.93-1.1,.29,.03,.6,.07,.86,.14,.76,.21,1.1,.14,1.1,.4,0,.18-.38,1.13-.58,1.63-.29,.47-.58,.95-.84,1.46Zm2.25,1.47c-.71-.35-1.35-.77-1.94-1.22,.23-.45,.48-.91,.75-1.37l1.43,.13-.34,.36c.37,.03,.72,.04,1.06,.05-.32,.64-.65,1.33-.97,2.06Zm3.09,.91c-.95-.1-1.84-.35-2.66-.71,.32-.73,.66-1.48,1.02-2.25,.87,.01,1.63-.02,2.3-.08-.26,.95-.5,1.98-.66,3.05Zm8.83,6.34c-.21-.07-.43-.11-.67-.11-.18,0-.35,.02-.51,.06,.11-.11,.27-.19,.44-.19h.26c.19,0,.37,.09,.48,.23Zm6.54-6.34c-.17-1.06-.4-2.08-.66-3.02,.65,.05,1.39,.07,2.21,.06,.37,.77,.71,1.53,1.03,2.27-.8,.35-1.66,.6-2.58,.69Zm3.01-.89c-.33-.74-.66-1.44-.99-2.08,.29-.01,.58-.03,.88-.05l-.34-.36,1.59-.14c.28,.48,.54,.96,.78,1.42-.58,.44-1.23,.86-1.93,1.2Zm2.25-1.45c-.39-.76-.83-1.48-1.28-2.14-.17-.43-.33-.88-.33-1,0-.25,.34-.19,1.1-.4,.3-.08,.67-.13,1.01-.15,.61,.38,1.27,.77,1.99,1.15-.55,.69-1.39,1.65-2.49,2.54Zm-32.09-11.75s-2.33-4.83,.44-9.06c2.77-4.23,4.25-3.19,4.43-5.7,.18-2.51,1.58-3.64,1.58-3.64,0,0-1.23,.24-1.94,2.22-.65,1.82-.38,1.5-2.28,3.12-.32-.31-.83-1.03-.88-2.48-.08-2.14-.2-3.48-.59-4.11,0,0,.2,2.49,0,4-.15,1.12,.34,2.44,.89,3.1-2.52,2.19-4.65,9.76-1.65,12.57Zm9.97,0c-1.11,.83-2.93,.99-2.93,.99l.24-.63c-.44,.4-1.11,.35-1.11,.35l.24-.7s-.71,.95-2.61,1.27c-1.9,.32-3.36,0-3.36,0,1.07,.99,2.85,.87,2.85,.87l-.67,.24c5.38,.59,7.36-2.37,7.36-2.37Zm1.78-8.92c-.66,0-1.2,.87-1.2,1.95s.54,1.95,1.2,1.95,1.2-.87,1.2-1.95-.54-1.95-1.2-1.95Zm0,3.47c-.73-1.72,0-3.06,0-3.06,.67,1.28,0,3.06,0,3.06Zm-7.68-19.71s-2.53-.2-3.2,3.24c0,0,1.31-1.11,2.73-1.23,0,0-1.03,1.11-1.62,2.26,0,0,2.06-.91,3.22-.83,0,0-.93,.63-1.31,1.15,0,0,3.22-.28,5.36,.63,0,0-2.08-.99-2.42-1.23l.92-.4s-1.31-.95-2.55-.99c-.74-.02-.97-.02-1.03-.01,.11-.09,.88-.73,1.52-.9,.1-.03,.19-.04,.28-.04,.71,0-1.78-.55-2.65-.44-.87,.12-.32-.55,.75-1.23Zm23.8,18.19c0-1.08-.54-1.95-1.2-1.95s-1.2,.87-1.2,1.95,.54,1.95,1.2,1.95,1.2-.87,1.2-1.95Zm-1.2,1.52s-.67-1.78,0-3.06c0,0,.73,1.34,0,3.06Zm-13.7,9.09c.26,0,.47-.21,.47-.47s-.21-.47-.47-.47-.47,.21-.47,.47,.21,.47,.47,.47Zm12.28-1.66c0,.26,.21,.47,.47,.47s.47-.21,.47-.47-.21-.47-.47-.47-.47,.21-.47,.47Zm-.92,1.16c0-.26-.21-.47-.47-.47s-.47,.21-.47,.47,.21,.47,.47,.47,.47-.21,.47-.47Zm-1.26,1.72c0,.26,.21,.47,.47,.47s.47-.21,.47-.47-.21-.47-.47-.47-.47,.21-.47,.47Zm-8.47,.83c.26,0,.47-.21,.47-.47s-.21-.47-.47-.47-.47,.21-.47,.47,.21,.47,.47,.47Zm12.4-9.13c2.21-.39,3.85-3.2,3.85-3.2l.77-.34c-2.28-2.5-4.01-3.46-6.14-2.9-2.14,.56-2.76,3.8-2.76,3.8,0,0-1.45,.89-.83,1.63,.62,.74,1.78,3,1.78,3,0,0-.47-2.43-.95-2.79-.47-.36-.39-.8,0-.79s2.08,1.98,4.28,1.59Zm-3.48-2.76s.71-3.77,3.16-3.35c2.45,.42,3.49,2.4,3.49,2.4,0,0-.63,2.82-3.16,3.06-2.53,.24-3.48-2.11-3.48-2.11Zm-8.97,7.93c0-.26-.21-.47-.47-.47s-.47,.21-.47,.47,.21,.47,.47,.47,.47-.21,.47-.47Zm10.25-.2c0-.26-.21-.47-.47-.47s-.47,.21-.47,.47,.21,.47,.47,.47,.47-.21,.47-.47Zm-10.45,2.17c.26,0,.47-.21,.47-.47s-.21-.47-.47-.47-.47,.21-.47,.47,.21,.47,.47,.47Zm-4.07-1.72c0,.26,.21,.47,.47,.47s.47-.21,.47-.47-.21-.47-.47-.47-.47,.21-.47,.47Zm32.51,.47c-4.55,3.64-16.1,.09-16.1,.09,0,0,3.01,1.97,8.98,2.05,5.97,.08,7.12-2.14,7.12-2.14Zm-21.55-17.75c.04,.2,.1,.38,.17,.51,0,0-.07-.2-.17-.51Zm5.47,19.47c.26,0,.47-.21,.47-.47s-.21-.47-.47-.47-.47,.21-.47,.47,.21,.47,.47,.47Zm9.34-9.86c-2.73-2.69-4.19-2.02-4.19-2.02,0,0,1.03,.4,3.24,1.9,2.22,1.5,3.56,4,3.56,4,0,0,.12-1.19-2.61-3.88Zm-9.05,7.89c0,.26,.21,.47,.47,.47s.47-.21,.47-.47-.21-.47-.47-.47-.47,.21-.47,.47Zm-12.43-24.78c.87,.47,.75,.87,.83,2.18,.08,1.31,1.82,5.42,1.82,5.42,0,0-.47-4.47,0-4.51,.47-.04,.24-.12,.36,3.28,.12,3.4,2.1,6.84,2.1,6.84,0,0-.83-3.48-.95-6.29-.12-2.81,.51-3.36,1.03-3.01,.39,.27,1.15,2.37,1.49,3.36-.28-1.37,.17-3.96,.17-3.96h-.1c.34-.82,.96-2.19,1.36-2.57,.59-.56,1.5-1.14,1.9-.23,.4,.91-.12,5.89-.12,5.89,.79-1.5,.71-5.3,1.01-6.13,.21-.58,2.92-2.16,4.56-3.08h0c-1.1,1.21-2.14,2.8-3.03,4.98,0,0,2.57-4.71,6.78-6.88,4.2-2.18,5.07-1.94,5.7-1.42,.63,.51-.44,4.83-.44,4.83,0,0,1.58-3.48,1.5-5.26-.08-1.78-1.54-1.9-4.59-.32-1.13,.59-2.32,1.17-3.5,1.97h0s-5.71,3.41-7.21,4.04c-1.48,.62-9.81,.41-10.07,.41-4.03-.53-6.62-2.62-6.62-2.62,1.66,2.29,5.14,2.61,6.02,3.08Zm11.1,25.94c0-.26-.21-.47-.47-.47s-.47,.21-.47,.47,.21,.47,.47,.47,.47-.21,.47-.47Zm-22.72,1.22c5.97-.08,8.98-2.05,8.98-2.05,0,0-11.55,3.55-16.1-.09,0,0,1.15,2.22,7.12,2.14Zm-4-33.27c.63-.51,1.5-.75,5.7,1.42,4.2,2.18,6.78,6.88,6.78,6.88-2.43-5.93-5.91-7.48-8.96-9.06-3.05-1.58-4.51-1.46-4.59,.32-.08,1.78,1.5,5.26,1.5,5.26,0,0-1.07-4.31-.44-4.83Zm38.75,30.04s-.63,.28-3.44,.24c0,0,1.94,1.07,3.44-.24Zm-16.3-11.24s.71-3.32,1.66-5.46c0,0-1.58,.87-1.66,5.46Zm-2.93,0c-1.35-1.03-2.53-5.46-2.53-5.46,.32,5.3,2.53,5.46,2.53,5.46Zm-4.35-12.42s-1.03,3.17,1.03,5.62c0,0-.71-2.29-1.03-5.62Zm.71,12.42c-.63-2.69,.32-4.19,.32-4.19-2.45,.95-.32,4.19-.32,4.19Zm.39,18.07s2.79-.58,3.83-2.13c1.04,1.55,3.83,2.13,3.83,2.13-1.13-.41-3.15-2.32-3.38-3-.24-.68-.12-2.26-.12-2.26,0,0,.27-.03,.68-.15,.42-.12-.18-1.01-.24-1.43s.42-.91,.85-.82c.44,.09,.45,1.57,1.29,.71s0-1.86-1.13-2.01-1.78,0-1.78,0c0,0-.65-.15-1.78,0s-1.96,1.14-1.13,2.01,.85-.62,1.29-.71c.44-.09,.91,.4,.85,.82s-.65,1.32-.24,1.43c.42,.12,.68,.15,.68,.15,0,0,.12,1.57-.12,2.26-.24,.68-2.26,2.59-3.38,3Zm19.45-28.8c-.38-.51-1.31-1.15-1.31-1.15,1.17-.08,3.22,.83,3.22,.83-.59-1.15-1.62-2.26-1.62-2.26,1.42,.12,2.73,1.23,2.73,1.23-.67-3.44-3.2-3.24-3.2-3.24,1.07,.67,1.62,1.35,.75,1.23s-3.36,.44-2.65,.44c.09,0,.18,.01,.28,.04,.64,.17,1.42,.81,1.52,.9-.07,0-.29-.01-1.03,.01-1.25,.04-2.55,.99-2.55,.99l.92,.4c-.35,.24-2.42,1.23-2.42,1.23,2.14-.91,5.36-.63,5.36-.63Zm.57,23.02s-2.3-.83-2.73-2.06l-.2,.99-1.15-1.38s0,1.28,.36,1.71c0,0-1.58-.84-2.45-1.71,0,0,1.15,3.08,6.17,2.45Zm1.88-18c-.05,1.45-.56,2.17-.88,2.48-1.91-1.62-1.63-1.3-2.28-3.12-.71-1.98-1.94-2.22-1.94-2.22,0,0,1.4,1.13,1.58,3.64,.18,2.51,1.66,1.46,4.43,5.7,2.77,4.23,.44,9.06,.44,9.06,3-2.8,.88-10.37-1.65-12.57,.55-.66,1.04-1.98,.89-3.1-.2-1.5,0-4,0-4-.4,.63-.51,1.98-.59,4.11Zm-33.62,9.83s.99-1.23,2.65-1.66c0,0-2.14-1.35-4.91,1.9h.47l-1.98,3.17s3.24-3.09,4.43-3.48l-.67,.08Z"/>
                </g>
            </g>
        </g>
    </g>
</svg>