<?xml version="1.0" encoding="UTF-8"?><svg xmlns="http://www.w3.org/2000/svg" xmlns:xlink="http://www.w3.org/1999/xlink" viewBox="0 0 547.53 547.53">
<defs><style>.m{fill:#fff;}.n{fill:url(#l);}.o{fill:url(#f);}.p{fill:url(#g);}.q{fill:url(#i);}.r{fill:url(#h);}.s{fill:url(#d);}.t{fill:url(#e);}.u,.v{fill:#543a14;}.w{fill:url(#j);}.x{fill:url(#k);}.v{opacity:.7;}</style><linearGradient id="d" x1="0" y1="273.76" x2="547.53" y2="273.76" gradientTransform="matrix(1, 0, 0, 1, 0, 0)" gradientUnits="userSpaceOnUse"><stop offset=".19" stop-color="#7c591d"/><stop offset="1" stop-color="#8e7b28"/></linearGradient><linearGradient id="e" x1="82.31" y1="417.6" x2="474.96" y2="122.6" gradientTransform="matrix(1, 0, 0, 1, 0, 0)" gradientUnits="userSpaceOnUse"><stop offset=".08" stop-color="#ad8431"/><stop offset="1" stop-color="#f2ce38"/></linearGradient><linearGradient id="f" x1="142.79" y1="346.82" x2="465.16" y2="104.61" gradientTransform="matrix(1, 0, 0, 1, 0, 0)" gradientUnits="userSpaceOnUse"><stop offset="0" stop-color="#ffe36c" stop-opacity=".3"/><stop offset="1" stop-color="#fff" stop-opacity=".3"/></linearGradient><linearGradient id="g" x1="255.05" y1="246.32" x2="461.33" y2="91.34" xlink:href="#f"/><linearGradient id="h" x1="17.57" y1="273.79" x2="529.69" y2="273.79" xlink:href="#d"/><linearGradient id="i" x1="116.32" y1="272.89" x2="429.93" y2="272.89" gradientTransform="matrix(1, 0, 0, 1, 0, 0)" gradientUnits="userSpaceOnUse"><stop offset="0" stop-color="#543a14"/><stop offset=".22" stop-color="#583e13"/><stop offset=".45" stop-color="#644a13"/><stop offset=".68" stop-color="#795e13"/><stop offset=".91" stop-color="#957a13"/><stop offset="1" stop-color="#a38813"/></linearGradient><linearGradient id="j" x1="97.56" y1="273.76" x2="449.97" y2="273.76" gradientTransform="matrix(1, 0, 0, 1, 0, 0)" gradientUnits="userSpaceOnUse"><stop offset="0" stop-color="#f2ce38"/><stop offset=".17" stop-color="#d7b135"/><stop offset="1" stop-color="#ad8431"/></linearGradient><linearGradient id="k" x1="14.7" y1="273.29" x2="532.83" y2="273.29" gradientTransform="matrix(1, 0, 0, 1, 0, 0)" gradientUnits="userSpaceOnUse"><stop offset="0" stop-color="#ddb836"/><stop offset="1" stop-color="#ad8431"/></linearGradient><linearGradient id="l" x1="153.34" y1="478.42" x2="387.25" y2="73.28" xlink:href="#i"/></defs><g id="a"/><g id="b"><g id="c"><g><circle class="s" cx="273.76" cy="273.76" r="273.73"/><circle class="t" cx="273.76" cy="273.76" r="268.18"/><path class="o" d="M417.4,47.29C292.33-32.04,126.62,5.05,47.29,130.12c-16.6,26.17-28.08,54.13-34.75,82.7,24.87,24.74,54.09,48.41,87.95,69.89,151.67,96.2,418.22,101.27,423.53,87.53,45.21-116.9,3.25-253.25-106.63-322.95Z"/><path class="p" d="M266.66,254.34C141.59,175.01,123.31,45.15,173.68,24.94,251.02-6.09,341.66-.74,417.4,47.29c91.8,58.23,136.2,162.98,121.96,264.05-5.16,36.63-147.63,22.33-272.7-57Z"/><path class="r" d="M273.13,529.85c-47.99,0-95.09-13.57-136.6-39.9-57.74-36.62-97.76-93.53-112.69-160.25-14.93-66.72-2.99-135.26,33.63-193C94.1,78.96,151.01,38.94,217.73,24c66.72-14.93,135.26-2.99,193,33.63,57.74,36.62,97.76,93.53,112.69,160.25s2.99,135.26-33.63,193l-.42-.27,.42,.27c-36.62,57.74-93.53,97.76-160.25,112.69-18.75,4.2-37.64,6.27-56.4,6.27Zm1-511.11c-18.69,0-37.5,2.06-56.18,6.25-66.46,14.87-123.15,54.74-159.63,112.25-36.48,57.51-48.38,125.79-33.5,192.25,14.87,66.46,54.74,123.15,112.25,159.63,57.51,36.48,125.79,48.38,192.25,33.5,66.46-14.87,123.15-54.74,159.63-112.25,36.48-57.51,48.37-125.79,33.5-192.25-14.87-66.46-54.74-123.15-112.25-159.63-41.35-26.22-88.27-39.75-136.06-39.75Z"/><path class="q" d="M277.59,389.1h-10.93v6.57h10.93v-6.57Zm-10.93,15.29h10.93v-6.57h-10.93v6.57Zm11.93-264.96h-10.93v6.57h10.93v-6.57Zm-10.93,15.29h10.93v-6.57h-10.93v6.57Zm-85.64,146.52l-8.33,11,.2,.52c1.15,2.96,2.44,5.85,3.82,8.68,.66-.13,1.33-.27,2-.42-1.36-2.75-2.61-5.57-3.76-8.46l7.05-9.31h18.92v-.08c-4.23-.37-7.75-1.05-10.65-1.92h-9.27Zm6.53-79.79c2.46-4.41,5.23-8.57,8.25-12.49-.05-1.28-.12-2.35-.16-3.03-3.76,4.65-7.16,9.67-10.11,15.04l-.27,.49,6.06,10.47h5.34v-2h-4.19l-4.91-8.49Zm157.61,82.16h17.22l6.33,10.4c-1.06,2.58-2.21,5.1-3.45,7.56,.68,.15,1.35,.3,2.02,.44,1.24-2.51,2.4-5.08,3.47-7.7l.19-.47-7.44-12.22h-10.5c-2.26,.59-4.87,1.08-7.85,1.4v.6Zm21.95-77.32l-6.25,10.98h-8.81v2h9.97l7.32-12.87-.2-.46c-5.23-11.81-12.36-22.34-20.91-31.31,.02,.11,.05,.22,.07,.33,.17,.85,.09,1.7-.16,2.49,7.68,8.36,14.12,18.06,18.96,28.83Zm-119.41-88.86c-17.91,3.45-34.52,10.66-49.07,20.75,.82,.18,1.66,.4,2.56,.7,13.66-9.21,29.09-15.88,45.7-19.25v19.03c-.94,.22-1.88,.46-2.81,.7v-14.16l-1.24,.31c-12.91,3.18-25.13,8.44-36.31,15.52,.66,.31,1.34,.64,2.03,.99,10.25-6.32,21.51-11.16,33.51-14.26v12.14c-1.27,.36-2.54,.75-3.79,1.16v-6.95l-1.3,.42c-8.08,2.58-15.78,6.05-23.02,10.27,.68,.36,1.37,.72,2.07,1.1,6.41-3.64,13.18-6.68,20.25-9.04v4.87c-5.4,1.87-10.62,4.16-15.64,6.82,.65,.4,1.3,.81,1.95,1.24,4.41-2.28,8.98-4.28,13.69-5.94v4.17c-3.44,1.27-6.8,2.72-10.08,4.33,.58,.44,1.16,.91,1.74,1.38,2.73-1.31,5.51-2.51,8.34-3.58v5.67c-1.06,.42-2.11,.88-3.15,1.34,.26,.14,.51,.3,.75,.49,.02,.01,.43,.34,1.17,.84,11.6-4.94,24.16-7.6,37.08-7.6s24.28,2.42,35.41,6.91c.73-.42,1.45-.83,2.17-1.25-.62-.26-1.23-.54-1.85-.78v-5.64c2.53,.95,5.02,2.01,7.46,3.16,.73-.43,1.42-.84,2.08-1.22-3.11-1.51-6.29-2.87-9.54-4.06v-4.2c4.65,1.64,9.17,3.59,13.53,5.83,.66-.43,1.31-.85,1.96-1.25-4.97-2.62-10.15-4.87-15.49-6.71v-4.85c7.02,2.33,13.75,5.33,20.11,8.93,.7-.38,1.39-.74,2.08-1.11-7.2-4.16-14.86-7.59-22.89-10.15l-1.3-.41v6.94c-1.37-.44-2.74-.86-4.13-1.25v-12.12c12.08,3.06,23.4,7.9,33.72,14.22,.7-.35,1.38-.68,2.04-.99-11.25-7.09-23.54-12.34-36.53-15.49l-1.24-.3v14.13c-1.02-.26-2.04-.51-3.07-.74v-19.01c16.81,3.31,32.43,9.98,46.24,19.25,.91-.29,1.76-.51,2.58-.69-14.7-10.16-31.51-17.36-49.64-20.75l-1.18-.22v20.96c-1.17-.24-2.35-.46-3.53-.67v-20.68h-10.7v2h8.7v18.35c-5.56-.87-11.23-1.33-16.99-1.33-6.12,0-12.14,.51-18.03,1.49v-18.51h10.73v-2h-12.73v20.88c-1.07,.2-2.14,.41-3.21,.64v-21l-1.19,.23Zm-5.62,36.3c-1.27,.42-2.54,.86-3.79,1.33v-5.64c1.25-.44,2.52-.87,3.79-1.26v5.57Zm0-7.66c-1.27,.39-2.54,.8-3.79,1.23v-4.14c1.26-.42,2.52-.81,3.79-1.19v4.09Zm4.81,6.22c-.94,.26-1.88,.53-2.81,.81v-5.53c.93-.27,1.87-.53,2.81-.77v5.48Zm0-7.54c-.94,.24-1.88,.48-2.81,.75v-4.06c.93-.25,1.87-.5,2.81-.73v4.03Zm54.84-2.9c1.39,.4,2.76,.82,4.13,1.27v4.16c-1.37-.47-2.74-.91-4.13-1.32v-4.11Zm0,6.19c1.39,.43,2.76,.89,4.13,1.37v5.61c-1.37-.51-2.74-1-4.13-1.44v-5.54Zm-5.07-7.49c1.03,.24,2.05,.49,3.07,.76v4.08c-1.02-.28-2.04-.55-3.07-.8v-4.04Zm0,6.1c1.03,.26,2.05,.53,3.07,.82v5.5c-1.02-.3-2.04-.59-3.07-.86v-5.46Zm-5.53-7.24c1.18,.21,2.36,.43,3.53,.68v4.02c-1.17-.26-2.35-.51-3.53-.73v-3.97Zm0,6.01c1.18,.23,2.36,.47,3.53,.74v5.44c-1.17-.28-2.35-.54-3.53-.78v-5.4Zm-37.02-6.18c5.89-1,11.91-1.52,18.03-1.52,5.76,0,11.43,.47,16.99,1.35v3.97c-5.57-.93-11.24-1.43-16.99-1.43-6.11,0-12.14,.56-18.03,1.6v-3.97Zm0,6c5.89-1.07,11.92-1.63,18.03-1.63,5.75,0,11.43,.51,16.99,1.46v5.37c-5.56-1-11.24-1.52-16.99-1.52-6.11,0-12.14,.6-18.03,1.72v-5.4Zm-2,5.79c-1.07,.23-2.14,.48-3.21,.74v-5.45c1.06-.25,2.13-.48,3.21-.7v5.41Zm0-11.42v3.97c-1.07,.21-2.15,.43-3.21,.68v-3.99c1.06-.24,2.13-.45,3.21-.66Zm94.98,70.33v2h5.54l6.4-10.45-.28-.51c-3.01-5.47-6.48-10.58-10.33-15.3-.04,.63-.11,1.69-.17,3,3.11,3.99,5.94,8.25,8.46,12.76l-5.21,8.5h-4.42Zm-74.94-111.9c-83.18,0-150.85,69.39-150.85,154.67s67.67,154.67,150.85,154.67,150.85-69.39,150.85-154.67-67.67-154.67-150.85-154.67Zm0,307.35c-82.07,0-148.85-68.49-148.85-152.67S191.05,120.05,273.13,120.05s148.85,68.49,148.85,152.67-66.77,152.67-148.85,152.67Zm-75.85-231.05c-8.92,9.3-16.31,20.32-21.64,32.71l-.19,.45,6.48,11.78h12.05c.1-.21,.21-.43,.32-.64v-1.36h-11.18l-5.44-9.88c4.91-11.28,11.56-21.38,19.53-30.05-.2-.73-.24-1.51-.09-2.28,.05-.25,.11-.48,.16-.73Zm75.85-82.11c-86.46,0-156.81,72.07-156.81,160.66s70.34,160.66,156.81,160.66,156.81-72.07,156.81-160.66-70.34-160.66-156.81-160.66Zm0,319.31c-85.36,0-154.81-71.17-154.81-158.66S187.77,114.24,273.13,114.24s154.81,71.17,154.81,158.66-69.45,158.66-154.81,158.66Zm-.27-306.14c-79.78,0-144.69,66.07-144.69,147.28s64.91,147.28,144.69,147.28,144.69-66.07,144.69-147.28-64.91-147.28-144.69-147.28Zm0,292.56c-78.68,0-142.69-65.17-142.69-145.28S194.18,127.41,272.86,127.41s142.69,65.17,142.69,145.28-64.01,145.28-142.69,145.28Zm-80.71-226.74c-11.41,12.24-20.31,27.17-25.72,44.09l-.15,.47,6.68,9.76h17.48v-2h-16.43l-5.53-8.08c5.32-16.41,13.99-30.9,25.07-42.8-.55-.37-1.03-.85-1.4-1.43Zm-34.36,51.17l-.1,.41,6.54,10.38h24.4v-2h-23.3l-5.5-8.73c5.12-21.26,15.81-40.41,30.38-55.61-.25-.63-.52-1.32-.8-2.05-15.24,15.66-26.39,35.52-31.63,57.61Zm115.53-111.94c-31.25,0-60.11,10.72-83.28,28.76,1.48-.94,3.29-1.46,5.35-1.51,22.09-15.9,48.96-25.25,77.93-25.25s55.77,9.32,77.84,25.19c4.25,.32,7.3,2.75,8.55,6.67,30.35,25.67,49.73,64.55,49.73,107.99,0,77.11-61.06,139.85-136.12,139.85s-136.12-62.74-136.12-139.85c0-42.99,18.98-81.5,48.78-107.17,.5-1.98,1.42-3.61,2.71-4.84-32.52,25.98-53.48,66.53-53.48,112.02,0,78.22,61.96,141.85,138.12,141.85s138.12-63.63,138.12-141.85-61.96-141.85-138.12-141.85Zm-95.55,202.41c7.23,11.96,16.54,22.61,27.47,31.18,2.84,2.22,5.76,4.28,8.75,6.19,.13-.77,.28-1.53,.42-2.3-13.76-8.96-25.59-20.99-34.44-35.29-.77,.09-1.51,.16-2.21,.21Zm5.91-.76c7.56,11.93,17.32,22.28,28.88,30.5,.85,.61,1.71,1.2,2.58,1.77,.14-.67,.28-1.35,.43-2.02-11.74-7.94-21.91-18.31-29.82-30.65-.71,.15-1.4,.28-2.07,.4Zm-9.49-10.04c-2.7-5.63-4.98-11.53-6.76-17.68l6.33-7.93h7.31v-.48c-.62-.54-1.12-1.06-1.52-1.52h-6.76l-7.57,9.49,.14,.5c1.75,6.16,4.03,12.15,6.76,17.91,.68-.09,1.37-.18,2.07-.29Zm11.58-2.62c1-.29,2-.6,3.01-.93l4.65-7.07h11.82c.16-.73,.47-1.41,.93-2h-13.83l-6.58,10.01Zm-20.31-30.15h12.24c.13-.72,.43-1.4,.86-2h-13.99l-7.88,8.58,.1,.5c1.94,9.79,5.02,19.16,9.09,27.97,.45-.51,1-.94,1.63-1.23-3.84-8.41-6.77-17.33-8.66-26.64l6.59-7.19Zm25.96,41.03c7,10.39,15.69,19.23,25.59,26.21,.18-.68,.37-1.37,.56-2.05-.41-.29-.81-.59-1.21-.88-.38,.09-.78,.16-1.18,.16-.29,0-.58-.02-.87-.08-2.45-.43-4.16-2.58-4.11-5.02-6.29-5.49-11.94-11.83-16.78-18.92-.68,.21-1.35,.4-2,.59Zm139.16,23.36c-.29,.05-.58,.08-.86,.08h-.01c-.69,.51-1.39,1.01-2.09,1.5,.19,.68,.38,1.37,.56,2.05,10.18-6.97,19.14-15.91,26.33-26.45-.66-.19-1.32-.38-2.01-.59-5.14,7.43-11.18,14.02-17.92,19.66-.46,1.88-1.98,3.4-3.99,3.75Zm9.4-44.23v2h12.56l5.42,7.85c.99,.32,1.97,.61,2.95,.89l.04-.08-7.37-10.66h-13.61Zm-8.88,61.56c3.4-2.12,6.72-4.43,9.93-6.94,10.74-8.42,19.92-18.84,27.1-30.54-.71-.06-1.45-.15-2.22-.25-9.06,14.44-21.16,26.53-35.23,35.44,.14,.76,.29,1.52,.42,2.28Zm-1.56-7.93c.15,.7,.3,1.4,.45,2.1,12.74-8.25,23.78-19.26,32.26-32.47-.68-.13-1.39-.27-2.11-.42-8.12,12.45-18.57,22.89-30.59,30.8Zm-33.2,42.42c59.31-10.88,103.76-61.82,108.12-123.86l.03-.4-6.94-8.48h-40.42c-.12,.53-.26,1.04-.41,1.55v.45h39.88l5.83,7.13c-4.42,60.54-47.58,110.26-105.27,121.41v-18.33c1.43-.32,2.85-.67,4.27-1.05v14.24l1.24-.31c24.53-6.1,46.51-19.57,63.57-38.97,17.16-19.51,28.04-43.58,31.46-69.58l.06-.45-8.03-9.22h-35.28l-.03,.05v1.95h34.4l6.84,7.85c-6.9,51.08-43.84,93.52-92.23,106.11v-12.23c1.29-.37,2.57-.77,3.84-1.19v6.94l1.31-.42c28.67-9.24,52.37-29.15,67.08-55.09-.67,.06-1.46,.1-2.36,.11-14.28,24.58-36.83,43.52-64.02,52.65v-4.85c4.64-1.63,9.17-3.59,13.58-5.84-.54-.49-.98-1.08-1.27-1.78-3.99,2.03-8.1,3.82-12.32,5.34v-3.69c3.89-1.44,7.69-3.11,11.38-5-.16-.57-.34-1.23-.56-1.97-3.51,1.81-7.12,3.43-10.82,4.82v-5.99c3.13-1.26,6.19-2.7,9.18-4.28-.19-.62-.4-1.26-.61-1.93-4.17,2.22-8.5,4.14-12.96,5.72-.34,.84-.7,1.68-1.09,2.48,1.17-.39,2.34-.8,3.49-1.24v5.97c-1.27,.45-2.55,.87-3.84,1.27v-5.32c-.15,.29-.3,.59-.45,.88-.38,.71-.92,1.29-1.55,1.72v3.31c-1.41,.41-2.84,.79-4.27,1.13v-3.77c-.19-.06-.39-.1-.57-.18-.54-.24-1.02-.57-1.43-.95v5.36c-.9,.2-1.81,.4-2.72,.57v-5.72c.81-.16,1.61-.35,2.41-.53-.47-.53-.82-1.14-1.03-1.81-2.25,.5-4.53,.93-6.83,1.27-.24,.75-.54,1.47-.91,2.15,1.46-.2,2.91-.43,4.35-.69v5.68c-3.88,.66-7.81,1.1-11.8,1.32-1.31,.44-2.7,.68-4.15,.68-1.33,0-2.61-.2-3.82-.57-5.57-.13-11.05-.69-16.4-1.69v-5.72c2.91,.58,5.85,1.02,8.82,1.34-.38-.67-.7-1.38-.97-2.12-3.59-.42-7.13-1.04-10.61-1.86-.19,.66-.52,1.28-.97,1.81,.57,.14,1.15,.29,1.72,.42v5.74c-1.17-.24-2.34-.5-3.5-.79v-4.01s-.04,.02-.06,.03c-.63,.28-1.29,.4-1.94,.41v3.06c-1.09-.29-2.18-.6-3.26-.93v-3.31c-.47-.39-.88-.87-1.18-1.44-.28-.53-.55-1.06-.82-1.6v5.74c-1.22-.4-2.43-.81-3.63-1.25v-6.03c1.16,.45,2.34,.88,3.52,1.29-.39-.82-.75-1.65-1.09-2.51-4.47-1.65-8.8-3.63-12.98-5.93-.22,.66-.42,1.3-.62,1.92,2.98,1.62,6.03,3.11,9.16,4.41v6.08c-3.71-1.45-7.33-3.12-10.84-4.98-.2,.7-.38,1.33-.54,1.9,3.7,1.95,7.5,3.69,11.39,5.18v3.7c-4.22-1.58-8.32-3.42-12.3-5.5-.2,.72-.55,1.36-1.01,1.9,4.32,2.26,8.76,4.23,13.32,5.88v4.88c-26.92-9.35-49.23-28.42-63.29-52.99-.95-.04-1.75-.11-2.38-.19,14.48,25.96,37.95,46.03,66.36,55.52l1.32,.44v-6.95c1.21,.41,2.42,.81,3.63,1.18v12.25c-47.94-13.06-84.37-55.62-90.98-106.39l7.11-7.21h33.75v-2h-34.58l-8.38,8.5,.06,.48c3.27,25.91,13.95,49.95,30.89,69.51,16.82,19.42,38.56,33.04,62.88,39.38l1.25,.33v-14.28c1.08,.3,2.17,.6,3.26,.87v18.4c-56.46-12.04-98.66-61.62-102.94-121.09l6.71-6.98h38.78v-.36c-.16-.53-.3-1.08-.43-1.64h-39.2l-7.92,8.24,.03,.44c4.19,60.98,47.68,111.8,105.77,123.6l1.2,.24v-20.39c1.16,.26,2.33,.51,3.5,.73v20.44h11.73v-2h-9.73v-18.07c6.17,1.07,12.48,1.62,18.86,1.62,5.85,0,11.63-.47,17.3-1.37v17.81h-10.24v2h12.24v-20.15c.91-.16,1.81-.33,2.72-.51v20.31l1.18-.22Zm7.09-27.97c1.29-.39,2.57-.81,3.84-1.25v3.67c-1.27,.43-2.55,.85-3.84,1.23v-3.66Zm-6.27,1.7c1.43-.34,2.86-.71,4.27-1.11v3.63c-1.41,.39-2.84,.76-4.27,1.09v-3.61Zm-55.64,1.54c-1.22-.38-2.43-.77-3.63-1.2v-3.69c1.2,.43,2.42,.85,3.63,1.24v3.65Zm5.26,1.51c-1.09-.28-2.18-.59-3.26-.91v-3.65c1.08,.32,2.17,.63,3.26,.91v3.65Zm5.5,1.24c-1.17-.24-2.34-.5-3.5-.77v-3.61c1.16,.28,2.33,.53,3.5,.77v3.61Zm38.17,.66c-5.67,.94-11.45,1.44-17.3,1.44-6.4,0-12.7-.6-18.86-1.72v-3.61c6.18,1.13,12.49,1.73,18.86,1.73,5.87,0,11.65-.51,17.3-1.46v3.62Zm2-.36v-3.6c.91-.17,1.81-.36,2.72-.56v3.64c-.9,.19-1.81,.36-2.72,.53Zm87.9-59.35c4.08-8.84,7.18-18.26,9.13-28.11l.09-.48-7.4-8.6h-14.08c.43,.6,.73,1.28,.86,2h12.3l6.16,7.17c-1.92,9.48-4.91,18.56-8.85,27.09,.66,.19,1.25,.51,1.77,.93Zm-21.93-145.41c18.97,18.62,32.11,43.4,36.64,71.34l-6.71,8.25h-29.48v2h30.43l7.88-9.68-.07-.44c-4.02-25.34-15.19-48.68-32.28-67.51-1.88-2.07-3.83-4.06-5.83-6-.18,.68-.38,1.37-.58,2.04Zm46.39,79.39c-3.29-35.31-19.78-66.98-44.45-89.38-.02,.81-.1,1.66-.22,2.54,23.58,21.91,39.35,52.5,42.64,86.58l-7.09,7.68h-37.65c-.03,.68-.07,1.35-.12,2h38.65l8.29-8.98-.04-.44Zm-49.02-71.92c14.95,15.49,25.84,35.11,30.9,56.96l-5.48,7.71h-24.02v2h25.05l6.6-9.28-.1-.44c-5.17-22.69-16.53-43.04-32.16-59-.27,.73-.54,1.42-.79,2.05Zm-168.8-9.21c-1.97,1.92-3.9,3.91-5.77,5.97-17.02,18.86-28.11,42.21-32.07,67.53l-.07,.44,7.69,9.39h30.66v-2h-29.71l-6.52-7.96c4.46-27.89,17.5-52.67,36.39-71.32-.21-.67-.41-1.36-.59-2.04Zm186.89,145.63c2.86-5.95,5.24-12.14,7.06-18.51l.14-.5-7.57-9.49h-6.37c-.52,.6-1.2,1.29-2.09,2h7.5l6.33,7.93c-1.84,6.36-4.22,12.46-7.05,18.26,.69,.11,1.37,.21,2.05,.3Zm-232.38-64.51l-.04,.44,8.24,8.98h38.46c-.06-.65-.1-1.32-.12-2h-37.46l-7.05-7.68c3.26-33.86,18.91-64.32,42.3-86.23-.12-.86-.21-1.7-.24-2.5-24.47,22.4-40.83,53.92-44.09,88.99Zm211.04-66.01c11.27,12.05,20.07,26.78,25.4,43.48l-5.88,7.63h-16.69v2h17.67l7.12-9.23-.16-.5c-5.43-17.26-14.49-32.47-26.13-44.88-.35,.6-.8,1.11-1.34,1.51Z"/><path class="u" d="M259.37,257.24s-2.41-12.5-10.66-14.68c-8.25-2.18-14.9,1.53-23.73,11.2l2.98,1.3s6.33,10.89,14.86,12.38c8.53,1.49,15.06-6.11,16.55-6.15s1.83,1.68,0,3.06c-1.83,1.38-3.67,10.78-3.67,10.78,0,0,4.47-8.71,6.88-11.58,2.41-2.87-3.21-6.31-3.21-6.31Zm-16.55,7.68c-9.79-.92-12.22-11.81-12.22-11.81,0,0,4.01-7.68,13.47-9.29,9.46-1.61,12.21,12.96,12.21,12.96,0,0-3.67,9.06-13.46,8.14Zm.71,28.31c-1,0-1.82,.81-1.82,1.82s.81,1.82,1.82,1.82,1.82-.81,1.82-1.82-.81-1.82-1.82-1.82Zm3.11-2.84c1,0,1.82-.81,1.82-1.82s-.81-1.82-1.82-1.82-1.82,.81-1.82,1.82,.81,1.82,1.82,1.82Zm87.32,24.22c.39-.72,.75-1.43,1.05-2.13,0,0-.47,.75-1.35,1.97-2.03-1.05-3.99-2.1-5.87-3.15-.38-.81-.57-2.56,3.31-4.45l5.31-2.6s-9.72,1.57-16.76,2.23c-9.11-5.68-14.83-10.24-14.83-10.24,0,0,5.5,6.11,15.99,13.21-1.54,.7-4.83,1.91-8.36,1.49-8.29-9.92-16.38-15.4-16.38-15.4,0,0,8.1,7.18,14.69,15.12l-4.15-.75s4.59,6.27,6.27,7.64c1.11,.91-2.1,1.35-5.25,1.33-4.9-9-9.16-14.93-10.78-17.07,.33-.33,.54-.78,.54-1.29,0-1-.81-1.82-1.82-1.82s-1.82,.81-1.82,1.82,.81,1.82,1.82,1.82c.45,0,.85-.17,1.17-.44,3.39,5.7,6.45,11.39,9.2,16.92-1-.06-1.9-.18-2.54-.35-2.9-.76,.61,2.29,.61,2.29,0,0-1.99,.23-4.94,.27-2.94-9.87-6.31-16.78-6.31-16.78,2.49,6.36,4.25,11.88,5.53,16.79-4.59,0-11.1-.5-16.29-2.87,0,0,4.02,4.09,16.9,5.29,1.06,4.4,1.74,8.3,2.23,11.84-2.35,.16-4.78,.07-7.31-.35-6.82-1.14-11.68-2.96-15.13-5.01,0,0,2.53,7.89,18.5,8.42-3.09,3.54-13.87,15.24-21.56,15.49v-1.3c0-.41-.34-.75-.75-.75s-.75,.34-.75,.75v1.25c-8.23-.63-14.37-6.88-22.48-15.7,12.67-1.51,14.8-8.15,14.8-8.15-3.45,2.05-8.31,3.87-15.13,5.01-2.48,.41-4.87,.51-7.17,.36,.5-3.58,1.18-7.51,2.25-11.96,12.06-1.31,15.86-5.18,15.86-5.18-4.82,2.21-10.77,2.8-15.27,2.87,1.29-4.93,3.05-10.47,5.55-16.87,0,0-3.4,6.96-6.34,16.88-3.5,.01-5.95-.28-5.95-.28,0,0,3.52-3.06,.61-2.29-.48,.13-1.11,.22-1.82,.29,2.69-5.41,5.68-10.97,8.98-16.54,.32,.3,.75,.48,1.23,.48,1,0,1.82-.81,1.82-1.82s-.81-1.82-1.82-1.82-1.82,.81-1.82,1.82c0,.46,.18,.88,.46,1.2-1.76,2.36-5.87,8.17-10.56,16.78-3.35,.1-7.14-.34-5.95-1.31,1.68-1.38,6.27-7.64,6.27-7.64t-3.42,.62c6.57-7.89,14.58-14.99,14.58-14.99,0,0-8.04,5.45-16.3,15.3h0c-3.52,.64-6.89-.46-8.68-1.22,11.17-7.47,17.03-14.08,17.03-14.08,0,0-6.13,4.96-15.79,10.99-7.07-.63-17.23-2.27-17.23-2.27l5.31,2.6c5.26,2.57,3.05,4.88,3,4.92-1.54,.85-3.14,1.7-4.77,2.54-.82-1.14-1.25-1.84-1.25-1.84,.29,.64,.61,1.31,.97,1.98-12.24,6.27-26.94,11.98-41.48,13.18,0,0,13.38,3.37,40.51-10.09,.73-.36,1.44-.73,2.14-1.09,2.26,3.62,5.49,7.46,9.35,10.89-3.13,6.33-5.54,13.48-6.45,21.38,0,0,2.15-9.18,7.65-20.35,2.28,1.91,4.76,3.66,7.37,5.16-4.61,10.72-8.93,23.72-11.43,38.43,0,0,3.93-16.13,13.05-37.55,3.41,1.76,7.03,3.05,10.73,3.62-1.28,10.34-.73,21.37,4.18,30.47,0,0-4.74-14.06-3.67-23.85,.22-2.05,.45-4.2,.72-6.46,1.18,.13,2.37,.2,3.56,.17,.43,0,.84-.03,1.25-.04,3.21,3.83,15.44,17.65,25.56,18.25v.76c-1.69,.22-3.07,1.4-3.62,2.97-2.48,1.39-4.16,4.04-4.16,7.09,0,4.49,3.64,8.13,8.13,8.13s8.13-3.64,8.13-8.13c0-2.81-1.43-5.29-3.59-6.75-.43-1.63-1.74-2.9-3.39-3.25v-.83c9.4-.74,20.69-13.42,24.69-18.28,.4-.03,.79-.07,1.18-.11,.28,2.31,.5,4.49,.73,6.57,1.07,9.78-3.67,23.85-3.67,23.85,4.93-9.13,5.46-20.21,4.17-30.58,3.6-.58,7.12-1.82,10.44-3.52,9.09,21.38,13.02,37.47,13.02,37.47-2.49-14.67-6.8-27.63-11.39-38.34,2.6-1.47,5.07-3.2,7.35-5.09,5.45,11.1,7.57,20.19,7.57,20.19-.91-7.83-3.28-14.93-6.37-21.22,3.9-3.43,7.15-7.28,9.45-10.91,1.06,.56,2.14,1.11,3.26,1.65,27.57,13.46,41.16,10.09,41.16,10.09-15.22-1.24-30.59-7.25-43.24-13.74Zm-111.65,11.37c-4.22-3.45-7.46-7.14-9.53-9.79,2.67-1.4,5.15-2.84,7.45-4.26,1.14,.1,2.33,.27,3.34,.55,2.92,.81,4.24,.56,4.24,1.53,0,.71-1.46,4.37-2.25,6.31-1.14,1.8-2.23,3.69-3.26,5.66Zm8.71,5.69c-2.73-1.36-5.23-2.99-7.48-4.72,.89-1.74,1.86-3.51,2.91-5.3l5.54,.49-1.3,1.38c1.43,.1,2.79,.16,4.1,.2-1.25,2.47-2.51,5.13-3.76,7.95Zm11.92,3.53c-3.68-.37-7.12-1.37-10.28-2.76,1.22-2.82,2.53-5.72,3.94-8.68,3.36,.05,6.31-.08,8.9-.32-1,3.65-1.91,7.63-2.56,11.77Zm34.12,24.49c-.81-.27-1.67-.42-2.57-.42-.68,0-1.34,.09-1.97,.25,.44-.44,1.03-.73,1.69-.73h.99c.75,0,1.41,.36,1.86,.91Zm25.27-24.5c-.65-4.1-1.55-8.04-2.54-11.66,2.52,.2,5.36,.28,8.56,.22,1.42,2.99,2.74,5.92,3.97,8.76-3.08,1.34-6.41,2.3-9.98,2.68Zm11.63-3.45c-1.27-2.86-2.55-5.55-3.81-8.05,1.1-.04,2.23-.1,3.41-.18l-1.3-1.38,6.13-.54c1.09,1.86,2.1,3.7,3.01,5.5-2.25,1.71-4.74,3.31-7.45,4.65Zm8.69-5.61c-1.52-2.95-3.2-5.7-4.94-8.26-.65-1.68-1.27-3.4-1.27-3.86,0-.97,1.32-.72,4.24-1.53,1.17-.33,2.6-.5,3.89-.6,2.36,1.48,4.93,2.97,7.69,4.44-2.11,2.68-5.37,6.38-9.61,9.8Zm-123.99-45.42s-9.02-18.65,1.68-35.01,16.43-12.33,17.12-22.01c.69-9.69,6.11-14.06,6.11-14.06,0,0-4.74,.92-7.49,8.56-2.53,7.01-1.45,5.8-8.82,12.04-1.24-1.21-3.2-3.99-3.41-9.6-.31-8.25-.76-13.45-2.29-15.9,0,0,.76,9.63,0,15.44-.57,4.32,1.32,9.41,3.45,11.98-9.76,8.48-17.95,37.72-6.36,48.55Zm38.52,0c-4.28,3.21-11.31,3.82-11.31,3.82l.92-2.45c-1.68,1.53-4.28,1.34-4.28,1.34l.92-2.72s-2.75,3.67-10.09,4.89c-7.34,1.22-12.99,0-12.99,0,4.13,3.82,11.01,3.36,11.01,3.36l-2.6,.92c20.79,2.29,28.43-9.17,28.43-9.17Zm6.88-34.49c-2.56,0-4.64,3.37-4.64,7.53s2.08,7.53,4.64,7.53,4.64-3.37,4.64-7.53-2.08-7.53-4.64-7.53Zm0,13.41c-2.81-6.65,0-11.81,0-11.81,2.58,4.93,0,11.81,0,11.81Zm-29.66-76.15s-9.78-.76-12.38,12.54c0,0,5.04-4.28,10.55-4.74,0,0-3.97,4.28-6.27,8.71,0,0,7.95-3.52,12.46-3.21,0,0-3.59,2.45-5.04,4.43,0,0,12.46-1.07,20.71,2.45,0,0-8.03-3.82-9.36-4.74l3.55-1.53s-5.04-3.68-9.86-3.83c-2.86-.09-3.75-.07-4-.04,.41-.35,3.41-2.81,5.89-3.46,.38-.1,.75-.16,1.09-.16,2.75,0-6.88-2.14-10.24-1.68-3.36,.46-1.22-2.14,2.9-4.74Zm91.98,70.27c0-4.16-2.08-7.53-4.64-7.53s-4.64,3.37-4.64,7.53,2.08,7.53,4.64,7.53,4.64-3.37,4.64-7.53Zm-4.64,5.88s-2.58-6.88,0-11.81c0,0,2.81,5.16,0,11.81Zm-52.94,35.14c1,0,1.82-.81,1.82-1.82s-.81-1.82-1.82-1.82-1.82,.81-1.82,1.82,.81,1.82,1.82,1.82Zm47.44-6.41c0,1,.81,1.82,1.82,1.82s1.82-.81,1.82-1.82-.81-1.82-1.82-1.82-1.82,.81-1.82,1.82Zm-3.57,4.5c0-1-.81-1.82-1.82-1.82s-1.82,.81-1.82,1.82,.81,1.82,1.82,1.82,1.82-.81,1.82-1.82Zm-4.87,6.64c0,1,.81,1.82,1.82,1.82s1.82-.81,1.82-1.82-.81-1.82-1.82-1.82-1.82,.81-1.82,1.82Zm-32.72,3.19c1,0,1.82-.81,1.82-1.82s-.81-1.82-1.82-1.82-1.82,.81-1.82,1.82,.81,1.82,1.82,1.82Zm47.9-35.27c8.53-1.49,14.86-12.38,14.86-12.38l2.98-1.3c-8.83-9.67-15.48-13.38-23.73-11.2-8.25,2.18-10.66,14.68-10.66,14.68,0,0-5.62,3.44-3.21,6.31,2.41,2.87,6.88,11.58,6.88,11.58,0,0-1.83-9.4-3.67-10.78-1.83-1.38-1.49-3.1,0-3.06s8.03,7.64,16.55,6.15Zm-13.46-10.66s2.75-14.56,12.21-12.96c9.46,1.61,13.47,9.29,13.47,9.29,0,0-2.43,10.89-12.22,11.81-9.79,.92-13.46-8.14-13.46-8.14Zm-34.65,30.66c0-1-.81-1.82-1.82-1.82s-1.82,.81-1.82,1.82,.81,1.82,1.82,1.82,1.82-.81,1.82-1.82Zm39.61-.77c0-1-.81-1.82-1.82-1.82s-1.82,.81-1.82,1.82,.81,1.82,1.82,1.82,1.82-.81,1.82-1.82Zm-40.36,8.37c1,0,1.82-.81,1.82-1.82s-.81-1.82-1.82-1.82-1.82,.81-1.82,1.82,.81,1.82,1.82,1.82Zm-15.71-6.67c0,1,.81,1.82,1.82,1.82s1.82-.81,1.82-1.82-.81-1.82-1.82-1.82-1.82,.81-1.82,1.82Zm125.62,1.82c-17.58,14.06-62.22,.33-62.22,.33,0,0,11.62,7.62,34.7,7.93,23.08,.31,27.52-8.26,27.52-8.26Zm-83.28-68.57c.16,.78,.38,1.46,.67,1.99,0,0-.26-.78-.67-1.99Zm21.13,75.24c1,0,1.82-.81,1.82-1.82s-.81-1.82-1.82-1.82-1.82,.81-1.82,1.82,.81,1.82,1.82,1.82Zm36.1-38.09c-10.55-10.39-16.2-7.79-16.2-7.79,0,0,3.97,1.53,12.53,7.34,8.56,5.81,13.76,15.44,13.76,15.44,0,0,.46-4.59-10.09-14.98Zm-34.97,30.48c0,1,.81,1.82,1.82,1.82s1.82-.81,1.82-1.82-.81-1.82-1.82-1.82-1.82,.81-1.82,1.82Zm-48.02-95.76c3.38,1.83,2.89,3.37,3.19,8.41,.31,5.04,7.03,20.94,7.03,20.94,0,0-1.83-17.27,0-17.43,1.83-.15,.92-.46,1.38,12.69,.46,13.15,8.1,26.45,8.1,26.45,0,0-3.21-13.45-3.67-24.31-.46-10.85,1.99-12.99,3.97-11.62,1.51,1.05,4.44,9.17,5.75,12.99-1.07-5.3,.67-15.29,.67-15.29h-.38c1.33-3.17,3.7-8.47,5.27-9.95,2.29-2.15,5.81-4.42,7.34-.9,1.53,3.52-.46,22.78-.46,22.78,3.06-5.81,2.75-20.48,3.9-23.69,.8-2.23,11.27-8.36,17.6-11.9h0c-4.26,4.69-8.26,10.82-11.71,19.24,0,0,9.95-18.19,26.18-26.6,16.23-8.41,19.6-7.49,22.04-5.5,2.45,1.99-1.68,18.65-1.68,18.65,0,0,6.11-13.45,5.81-20.33s-5.94-7.34-17.72-1.22c-4.37,2.27-8.97,4.52-13.51,7.62h0s-22.05,13.17-27.86,15.61c-5.72,2.41-37.89,1.6-38.92,1.57-15.56-2.03-25.59-10.13-25.59-10.13,6.42,8.87,19.87,10.09,23.25,11.92Zm42.9,100.24c0-1-.81-1.82-1.82-1.82s-1.82,.81-1.82,1.82,.81,1.82,1.82,1.82,1.82-.81,1.82-1.82Zm-87.77,4.72c23.08-.31,34.7-7.93,34.7-7.93,0,0-44.64,13.73-62.22-.33,0,0,4.43,8.56,27.52,8.26Zm-15.44-128.56c2.45-1.99,5.81-2.9,22.04,5.5,16.23,8.41,26.18,26.6,26.18,26.6-9.41-22.93-22.85-28.89-34.63-35.01-11.78-6.11-17.41-5.66-17.72,1.22-.31,6.88,5.81,20.33,5.81,20.33,0,0-4.13-16.66-1.68-18.65Zm149.72,116.09s-2.45,1.07-13.3,.92c0,0,7.49,4.13,13.3-.92Zm-62.98-43.41s2.75-12.84,6.42-21.1c0,0-6.11,3.36-6.42,21.1Zm-11.31,0c-5.2-3.97-9.78-21.1-9.78-21.1,1.22,20.48,9.78,21.1,9.78,21.1Zm-16.82-48s-3.97,12.23,3.97,21.71c0,0-2.75-8.87-3.97-21.71Zm2.75,48c-2.45-10.39,1.22-16.2,1.22-16.2-9.48,3.67-1.22,16.2-1.22,16.2Zm1.49,69.83s10.78-2.23,14.79-8.23c4.01,6,14.79,8.23,14.79,8.23-4.36-1.59-12.15-8.96-13.07-11.59-.92-2.64-.46-8.71-.46-8.71,0,0,1.03-.11,2.64-.57,1.6-.46-.69-3.9-.92-5.54s1.61-3.52,3.29-3.17c1.68,.34,1.76,6.08,4.97,2.72s0-7.2-4.36-7.77-6.88,0-6.88,0c0,0-2.52-.57-6.88,0s-7.57,4.42-4.36,7.77,3.28-2.38,4.97-2.72c1.68-.34,3.52,1.53,3.29,3.17s-2.52,5.08-.92,5.54c1.6,.46,2.64,.57,2.64,.57,0,0,.46,6.08-.46,8.71-.92,2.64-8.71,10-13.07,11.59Zm75.17-111.26c-1.45-1.99-5.04-4.43-5.04-4.43,4.51-.31,12.46,3.21,12.46,3.21-2.29-4.43-6.27-8.71-6.27-8.71,5.5,.46,10.55,4.74,10.55,4.74-2.6-13.3-12.38-12.54-12.38-12.54,4.13,2.6,6.27,5.2,2.9,4.74s-12.99,1.68-10.24,1.68c.34,0,.71,.06,1.09,.16,2.47,.65,5.48,3.12,5.89,3.46-.25-.03-1.14-.04-4,.04-4.82,.15-9.86,3.83-9.86,3.83l3.55,1.53c-1.34,.92-9.36,4.74-9.36,4.74,8.25-3.52,20.71-2.45,20.71-2.45Zm2.22,88.97s-8.87-3.21-10.55-7.95l-.76,3.82-4.43-5.35s0,4.95,1.38,6.6c0,0-6.11-3.24-9.48-6.6,0,0,4.44,11.92,23.85,9.48Zm7.25-69.55c-.21,5.61-2.17,8.39-3.41,9.6-7.37-6.25-6.29-5.03-8.82-12.04-2.75-7.64-7.49-8.56-7.49-8.56,0,0,5.42,4.38,6.11,14.06,.69,9.69,6.42,5.66,17.12,22.01,10.7,16.36,1.68,35.01,1.68,35.01,11.59-10.83,3.4-40.07-6.36-48.55,2.14-2.57,4.02-7.66,3.45-11.98-.76-5.81,0-15.44,0-15.44-1.53,2.45-1.99,7.64-2.29,15.9Zm-129.91,38s3.82-4.74,10.24-6.42c0,0-8.25-5.2-18.96,7.34h1.83l-7.64,12.23s12.54-11.92,17.12-13.45l-2.6,.31Z"/><path class="v" d="M273.82,446.78v-4c7.74,0,15.56-.56,23.25-1.64l.56,3.96c-7.87,1.1-15.88,1.67-23.81,1.68Zm-17.88-.91c-7.89-.82-15.81-2.19-23.51-4.1l.96-3.88c7.53,1.86,15.26,3.21,22.97,4l-.41,3.98Zm59.27-4.16l-.96-3.88c7.53-1.86,15-4.26,22.2-7.14l1.48,3.71c-7.37,2.94-15.02,5.4-22.72,7.3Zm-99.92-5.13c-6.52-2.35-12.99-5.13-19.22-8.27-.88-.44-1.75-.89-2.62-1.35l1.86-3.54c.85,.45,1.7,.88,2.56,1.31,6.09,3.06,12.41,5.78,18.78,8.08l-1.36,3.76Zm138.91-9.66l-1.86-3.54c6.88-3.6,13.56-7.72,19.86-12.22l2.33,3.25c-6.45,4.61-13.29,8.82-20.33,12.51Zm-176.17-9.06c-6.63-4.39-13-9.28-18.94-14.53l2.65-3c5.8,5.13,12.03,9.9,18.5,14.19l-2.21,3.33Zm210.5-14.61l-2.65-2.99c5.81-5.14,11.3-10.74,16.33-16.63l3.04,2.6c-5.15,6.04-10.78,11.77-16.72,17.03Zm-242.23-12.46c-5.36-5.84-10.37-12.12-14.88-18.66l3.29-2.27c4.41,6.39,9.3,12.52,14.53,18.23l-2.95,2.71Zm269.87-18.78l-3.3-2.27c4.38-6.37,8.37-13.12,11.87-20.07l.08-.16,3.56,1.82-.06,.11c-3.59,7.14-7.68,14.05-12.16,20.57Zm-294.14-15.13c-3.8-6.96-7.16-14.25-9.98-21.68l3.74-1.42c2.75,7.25,6.03,14.38,9.75,21.18l-3.51,1.92Zm313.56-21.95l-3.74-1.42c2.75-7.27,5.02-14.77,6.74-22.32l3.9,.89c-1.76,7.72-4.08,15.41-6.9,22.85Zm-329.02-16.77c-2.04-7.68-3.57-15.56-4.53-23.43l3.97-.49c.95,7.69,2.44,15.39,4.43,22.89l-3.87,1.03Zm338.99-23.72l-3.97-.48c.8-6.62,1.2-13.37,1.2-20.05,0-1.08-.01-2.16-.03-3.24l4-.08c.02,1.1,.03,2.21,.03,3.31,0,6.84-.41,13.75-1.23,20.53Zm-344.78-17.57c-.02-1.07-.03-2.15-.03-3.23,0-6.87,.42-13.8,1.24-20.61l3.97,.48c-.8,6.65-1.21,13.42-1.21,20.13,0,1.05,0,2.1,.03,3.15l-4,.08Zm340.74-23.64c-.95-7.69-2.44-15.39-4.44-22.89l3.87-1.03c2.04,7.67,3.57,15.56,4.54,23.43l-3.97,.49Zm-332.56-16.95l-3.9-.89c1.76-7.73,4.09-15.41,6.91-22.84l3.74,1.42c-2.76,7.26-5.03,14.77-6.75,22.31Zm322.75-22.59c-2.76-7.25-6.04-14.38-9.76-21.18l3.51-1.92c3.81,6.96,7.17,14.25,9.99,21.67l-3.74,1.42Zm-308.92-15.81l-3.62-1.7,.06-.12c3.55-7.07,7.62-13.96,12.09-20.45l3.3,2.27c-4.36,6.34-8.34,13.07-11.82,20Zm289.98-20.25c-4.41-6.39-9.3-12.52-14.54-18.22l2.95-2.71c5.37,5.84,10.38,12.12,14.89,18.66l-3.29,2.27Zm-267.5-13.64l-3.04-2.6c5.15-6.04,10.77-11.77,16.71-17.04l2.65,2.99c-5.8,5.15-11.3,10.74-16.33,16.64Zm240.47-16.83c-5.8-5.12-12.03-9.9-18.51-14.18l2.21-3.34c6.63,4.39,13,9.27,18.95,14.52l-2.65,3Zm-210.46-10.72l-2.33-3.25c6.45-4.62,13.28-8.83,20.32-12.52l1.86,3.54c-6.87,3.61-13.55,7.72-19.85,12.23Zm176.89-12.36c-.82-.43-1.65-.86-2.49-1.28-6.12-3.08-12.46-5.8-18.86-8.11l1.35-3.76c6.55,2.36,13.04,5.15,19.3,8.3,.85,.43,1.7,.86,2.55,1.31l-1.85,3.54Zm-141.15-7.2l-1.48-3.71c7.37-2.94,15.01-5.41,22.72-7.32l.96,3.88c-7.53,1.87-15,4.27-22.2,7.15Zm103.06-7.25c-7.53-1.86-15.26-3.2-22.97-3.99l.41-3.98c7.9,.81,15.81,2.19,23.52,4.09l-.96,3.88Zm-63.69-3.23l-.56-3.96c7.87-1.11,15.88-1.68,23.81-1.69v4c-7.74,.01-15.56,.57-23.25,1.65Z"/><path class="w" d="M273.82,449.97v-4c7.89-.01,15.87-.57,23.69-1.67l.56,3.96c-8.01,1.12-16.17,1.7-24.25,1.71Zm-18.21-.93c-8.04-.83-16.09-2.24-23.95-4.17l.96-3.88c7.68,1.89,15.55,3.27,23.4,4.08l-.41,3.98Zm60.36-4.24l-.96-3.88c7.67-1.9,15.28-4.34,22.62-7.27l1.48,3.71c-7.51,3-15.29,5.5-23.14,7.44Zm-101.76-5.22c-6.64-2.39-13.23-5.23-19.58-8.42-.89-.45-1.78-.91-2.67-1.37l1.85-3.54c.87,.45,1.74,.9,2.61,1.34,6.21,3.12,12.65,5.89,19.14,8.23l-1.36,3.76Zm141.47-9.84l-1.86-3.54c7-3.67,13.81-7.86,20.23-12.45l2.33,3.25c-6.57,4.7-13.53,8.98-20.7,12.74Zm-179.41-9.23c-6.75-4.47-13.24-9.45-19.29-14.79l2.65-3c5.91,5.22,12.25,10.09,18.85,14.46l-2.21,3.33Zm214.38-14.88l-2.65-2.99c5.91-5.24,11.51-10.94,16.64-16.95l3.04,2.6c-5.25,6.15-10.98,11.98-17.03,17.34Zm-246.69-12.7c-5.46-5.95-10.56-12.35-15.15-19l3.29-2.27c4.49,6.51,9.47,12.76,14.81,18.57l-2.95,2.71Zm274.83-19.13l-3.3-2.27c4.46-6.49,8.53-13.37,12.09-20.45l3.65,1.64-.04,.08c-3.68,7.32-7.84,14.36-12.41,20.99Zm-299.55-15.41c-3.87-7.09-7.29-14.52-10.16-22.08l3.74-1.42c2.81,7.39,6.15,14.65,9.94,21.58l-3.51,1.92Zm319.33-22.36l-3.74-1.42c2.81-7.4,5.12-15.05,6.87-22.74l3.9,.89c-1.79,7.87-4.16,15.7-7.03,23.27Zm-335.08-17.08c-2.08-7.82-3.63-15.84-4.62-23.86l3.97-.49c.96,7.84,2.48,15.68,4.51,23.32l-3.87,1.03Zm345.23-24.16l-3.97-.48c.81-6.75,1.22-13.62,1.22-20.43,0-1.1-.01-2.2-.03-3.3l4-.08c.02,1.12,.03,2.25,.03,3.37,0,6.97-.42,14-1.25,20.91Zm-351.13-17.89c-.02-1.09-.03-2.19-.03-3.29,0-7,.42-14.06,1.26-20.99l3.97,.48c-.82,6.78-1.23,13.68-1.23,20.51,0,1.07,.01,2.14,.03,3.21l-4,.07Zm347.08-24.08c-.97-7.84-2.49-15.68-4.52-23.32l3.87-1.03c2.08,7.81,3.64,15.84,4.63,23.86l-3.97,.49Zm-338.83-17.27l-3.9-.89c1.8-7.87,4.17-15.69,7.04-23.26l3.74,1.42c-2.81,7.4-5.12,15.05-6.88,22.73Zm328.83-23.02c-2.81-7.39-6.15-14.65-9.95-21.57l3.51-1.92c3.88,7.09,7.3,14.51,10.18,22.07l-3.74,1.42Zm-314.74-16.11l-3.61-1.72,.05-.09c3.63-7.21,7.77-14.23,12.31-20.84l3.3,2.27c-4.44,6.46-8.49,13.32-12.04,20.38Zm295.44-20.64c-4.49-6.51-9.48-12.75-14.82-18.56l2.95-2.71c5.46,5.95,10.57,12.34,15.16,19l-3.29,2.27Zm-272.55-13.89l-3.04-2.6c5.25-6.15,10.97-11.99,17.02-17.35l2.65,2.99c-5.91,5.24-11.51,10.94-16.63,16.96Zm245-17.15c-5.91-5.22-12.26-10.08-18.85-14.45l2.21-3.34c6.75,4.47,13.24,9.44,19.29,14.79l-2.65,3Zm-214.43-10.92l-2.33-3.25c6.57-4.7,13.53-8.99,20.69-12.75l1.86,3.54c-7,3.67-13.81,7.87-20.22,12.46Zm180.23-12.59c-.84-.44-1.68-.87-2.53-1.3-6.23-3.13-12.7-5.91-19.22-8.26l1.35-3.76c6.67,2.4,13.28,5.24,19.66,8.45,.87,.44,1.73,.88,2.59,1.33l-1.85,3.54Zm-143.81-7.33l-1.48-3.71c7.51-3,15.29-5.51,23.14-7.45l.96,3.88c-7.67,1.9-15.28,4.35-22.61,7.28Zm105-7.39c-7.67-1.89-15.54-3.26-23.4-4.07l.41-3.98c8.04,.83,16.1,2.23,23.95,4.16l-.96,3.88Zm-64.89-3.29l-.56-3.96c8.01-1.13,16.17-1.71,24.25-1.72v4c-7.89,.01-15.86,.58-23.69,1.68Z"/><path class="v" d="M295.37,528.51l-.34-3.99c8.44-.72,16.95-1.88,25.29-3.46l.74,3.93c-8.47,1.6-17.11,2.78-25.69,3.51Zm-43.84-.02c-8.59-.74-17.24-1.94-25.69-3.55l.75-3.93c8.32,1.59,16.82,2.76,25.28,3.49l-.34,3.98Zm111.76-15.26l-1.4-3.75c7.95-2.96,15.83-6.37,23.43-10.12l1.77,3.59c-7.72,3.81-15.73,7.27-23.81,10.28Zm-179.64-.18c-8.04-3.04-16.04-6.53-23.75-10.38l1.79-3.58c7.6,3.79,15.46,7.23,23.38,10.22l-1.41,3.74Zm240.96-32.8l-2.36-3.23c6.85-5,13.52-10.42,19.82-16.09l2.68,2.97c-6.4,5.76-13.18,11.26-20.14,16.35Zm-302.14-.41c-6.96-5.1-13.73-10.6-20.11-16.36l2.68-2.97c6.28,5.66,12.95,11.08,19.8,16.1l-2.36,3.23Zm352.22-47.98l-3.15-2.47c5.22-6.65,10.18-13.66,14.73-20.84l.1-.16,3.38,2.14-.12,.19c-4.61,7.28-9.65,14.4-14.95,21.15Zm-402.25-.44c-5.31-6.78-10.33-13.92-14.93-21.21l3.38-2.13c4.52,7.18,9.47,14.2,14.69,20.88l-3.15,2.47Zm437.55-59.8l-3.69-1.54c3.26-7.83,6.14-15.92,8.58-24.03l3.83,1.15c-2.48,8.24-5.41,16.46-8.72,24.42Zm-472.57-.38c-3.28-7.96-6.18-16.19-8.64-24.45l3.83-1.14c2.42,8.13,5.28,16.23,8.51,24.07l-3.7,1.52Zm490.23-66.96l-3.97-.47c1.01-8.42,1.59-16.98,1.74-25.46l4,.07c-.15,8.61-.74,17.32-1.76,25.87Zm-507.75-.42c-1.02-8.56-1.61-17.26-1.76-25.86l4-.07c.15,8.47,.73,17.03,1.74,25.46l-3.97,.47Zm502.56-68.57c-1.3-8.38-3.04-16.79-5.18-24.99l3.87-1.01c2.17,8.33,3.94,16.87,5.26,25.39l-3.95,.61Zm-497.38-.42l-3.95-.62c1.33-8.51,3.11-17.05,5.3-25.38l3.87,1.02c-2.15,8.2-3.91,16.6-5.21,24.98Zm477.8-65.26c-3.5-7.73-7.44-15.36-11.71-22.68l3.46-2.01c4.33,7.44,8.34,15.2,11.89,23.04l-3.64,1.65Zm-458.06-.35l-3.64-1.67c3.58-7.81,7.6-15.54,11.97-22.99l3.45,2.02c-4.3,7.33-8.26,14.95-11.78,22.63Zm421.5-57.62c-5.46-6.48-11.33-12.76-17.43-18.66l2.78-2.88c6.2,5.99,12.16,12.37,17.71,18.96l-3.06,2.58Zm-384.82-.27l-3.06-2.58c5.56-6.6,11.52-12.98,17.7-18.97l2.78,2.88c-6.09,5.89-11.95,12.17-17.43,18.67Zm333.9-45.62c-2.24-1.52-4.54-3.04-6.84-4.49-4.88-3.09-9.91-6.05-14.96-8.79l1.91-3.52c5.12,2.78,10.24,5.79,15.19,8.93,2.33,1.48,4.67,3.02,6.95,4.56l-2.25,3.31Zm-282.97-.26l-2.24-3.31c7.12-4.83,14.59-9.35,22.18-13.44l1.9,3.52c-7.47,4.02-14.82,8.48-21.83,13.23Zm221.63-30.28c-8.03-2.71-16.3-5.04-24.56-6.91l.89-3.9c8.4,1.91,16.8,4.27,24.96,7.02l-1.28,3.79Zm-160.18-.07l-1.27-3.79c8.17-2.73,16.57-5.07,24.97-6.97l.88,3.9c-8.27,1.86-16.55,4.17-24.58,6.86Zm67.34-12.72l-.2-4c8.58-.44,17.32-.44,25.93,0l-.2,4c-8.47-.43-17.07-.43-25.52,0Z"/><path class="x" d="M295.66,531.92l-.34-3.99c8.56-.73,17.18-1.91,25.63-3.5l.74,3.93c-8.58,1.62-17.34,2.81-26.03,3.56Zm-44.43-.02c-8.7-.75-17.46-1.96-26.03-3.59l.75-3.93c8.44,1.61,17.06,2.8,25.63,3.54l-.34,3.98Zm113.26-15.46l-1.4-3.75c8.06-3.01,16.05-6.46,23.75-10.26l1.77,3.59c-7.82,3.86-15.94,7.36-24.12,10.42Zm-182.05-.19c-8.15-3.08-16.25-6.62-24.07-10.52l1.79-3.58c7.7,3.84,15.68,7.33,23.7,10.36l-1.41,3.74Zm244.19-33.24l-2.36-3.23c6.94-5.07,13.7-10.55,20.09-16.31l2.68,2.97c-6.49,5.84-13.36,11.42-20.41,16.56Zm-306.19-.41c-7.05-5.17-13.91-10.75-20.38-16.58l2.68-2.97c6.37,5.74,13.12,11.23,20.07,16.32l-2.36,3.23Zm356.95-48.62l-3.15-2.47c5.29-6.74,10.31-13.85,14.93-21.13l.1-.17,3.38,2.14-.11,.17c-4.69,7.39-9.79,14.61-15.16,21.45Zm-407.65-.44c-5.38-6.87-10.47-14.1-15.13-21.5l3.38-2.13c4.58,7.28,9.6,14.4,14.89,21.16l-3.15,2.47Zm443.41-60.6l-3.69-1.54c3.3-7.94,6.23-16.14,8.7-24.36l3.83,1.15c-2.51,8.35-5.48,16.68-8.83,24.74Zm-478.91-.39c-3.32-8.07-6.27-16.4-8.76-24.77l3.83-1.14c2.45,8.24,5.35,16.45,8.62,24.39l-3.7,1.52Zm496.8-67.85l-3.97-.47c1.02-8.53,1.61-17.21,1.76-25.81l4,.07c-.15,8.73-.75,17.55-1.79,26.21Zm-514.56-.43c-1.03-8.67-1.63-17.49-1.79-26.21l4-.07c.15,8.58,.74,17.27,1.76,25.81l-3.97,.47Zm509.36-69.5c-1.32-8.5-3.08-17.02-5.25-25.33l3.87-1.01c2.2,8.44,3.99,17.1,5.33,25.73l-3.95,.61Zm-504.15-.42l-3.95-.62c1.34-8.63,3.15-17.28,5.37-25.72l3.87,1.02c-2.18,8.31-3.96,16.83-5.28,25.32Zm484.31-66.15c-3.55-7.83-7.54-15.57-11.87-22.99l3.46-2.01c4.39,7.54,8.45,15.4,12.05,23.35l-3.64,1.65Zm-464.3-.36l-3.64-1.67c3.62-7.91,7.71-15.75,12.13-23.3l3.45,2.02c-4.36,7.43-8.38,15.15-11.94,22.94Zm427.25-58.4c-5.54-6.57-11.48-12.94-17.67-18.92l2.78-2.88c6.28,6.07,12.32,12.54,17.94,19.21l-3.06,2.58Zm-390.07-.28l-3.06-2.58c5.63-6.69,11.67-13.15,17.94-19.22l2.78,2.88c-6.17,5.97-12.12,12.34-17.66,18.92ZM417.32,62.92c-2.28-1.55-4.62-3.08-6.94-4.56-4.94-3.13-10.04-6.13-15.16-8.91l1.91-3.52c5.2,2.82,10.38,5.87,15.39,9.05,2.36,1.49,4.73,3.05,7.04,4.63l-2.25,3.31Zm-286.83-.27l-2.24-3.31c7.22-4.9,14.78-9.48,22.48-13.62l1.9,3.52c-7.57,4.08-15.02,8.59-22.13,13.41Zm224.65-30.69c-8.14-2.75-16.52-5.1-24.9-7.01l.89-3.9c8.51,1.93,17.02,4.33,25.29,7.12l-1.28,3.79Zm-162.36-.08l-1.27-3.79c8.28-2.77,16.79-5.14,25.31-7.06l.88,3.9c-8.39,1.89-16.77,4.23-24.92,6.95Zm68.26-12.89l-.2-4c8.69-.44,17.55-.45,26.27,0l-.2,4c-8.59-.43-17.31-.43-25.87,0Z"/><path class="n" d="M64.17,286.12l5.84,15.51,4.39-15.98,16.55-.76-13.84-9.12,4.39-15.98-12.95,10.34-13.84-9.12,5.84,15.51-12.95,10.34,16.55-.76Zm28.87,65.16l9.07-13.87-15.49,5.89-10.39-12.91,.82,16.55-15.49,5.89,15.99,4.34,.82,16.55,9.07-13.87,15.99,4.34-10.39-12.91Zm39.46,42.84l-15.49,5.89-10.39-12.91,.82,16.55-15.49,5.89,15.99,4.34,.82,16.55,9.07-13.87,15.99,4.34-10.39-12.91,9.07-13.87Zm373.4-132.5l-16.15,3.69-8.5-14.22-1.48,16.5-16.15,3.69,15.24,6.51-1.48,16.5,10.9-12.48,15.24,6.51-8.5-14.22,10.9-12.48Zm-30.81,67.48l-8.62-14.15-1.35,16.52-16.12,3.82,15.29,6.38-1.35,16.52,10.8-12.57,15.29,6.38-8.62-14.15,10.8-12.57-16.12,3.82Zm-23.89,55.33l-14.43,8.15-12.21-11.2,3.29,16.24-14.43,8.15,16.46,1.89,3.29,16.24,6.88-15.07,16.46,1.89-12.21-11.2,6.88-15.07ZM200.55,100.34l-5.89-16.63,20.13-7.13,5.89,16.63,11.74-4.16-13.79-38.93-11.74,4.16,5.87,16.57-20.13,7.13-5.87-16.57-11.57,4.1,13.79,38.93,11.57-4.1Zm-101.43,101.65l-15.79-7.73,9.6-19.61,15.79,7.73,5.45-11.13-37.1-18.16-20.6,42.08,37.1,18.16,5.55-11.34Zm-31.56-15.65l9.39-19.18,10.33,5.06-9.39,19.18-10.33-5.06ZM249.1,87.41l-6.76-40.74-12.22,2.03,6.76,40.74,12.22-2.03Zm188.6,92.6l16.1,33.11,37.14-18.06-20.49-42.13-26.9,13.08-5.85,14Zm13.63-4.07l19.05-9.26,9.7,19.95-26.21,12.75-6.63-13.63,4.09-9.8Zm-157.14-95.95l-28.55-.29,.12-11.5,31.21,.31,.06-6.08-31.21-.31,.12-11.56,28.73,.29,5.31-6.02-46.37-.47-.42,41.29,46.25,.47-5.25-6.13Zm82.29,28.77l6.55-9.46,25.67,17.76,3.46-5-25.67-17.76,6.58-9.51,23.63,16.35,7.78-2.01-38.14-26.39-23.5,33.97,38.04,26.32-.91-8.02-23.49-16.25Zm50.8,27.38l-3.39,23.47,8.85,10.29,4.27-27.33,27.04,.4-9.12-10.6-23.04-.18-3.89-4.52,13.15-11.31-8-9.3-31.31,26.94,8,9.3,13.55-11.66,3.89,4.52Zm-242.88-36.27l-28.08,18.93-16.29-24.17,23.68-15.96,.96-7.97-38.5,25.95,23.08,34.24,34.15-23.02,1.01-8.01Zm-52.56,20.81l-16.61-14.44-31.12,35.8,31.17,27.1,8.21-9.44-26.58-23.11,14.94-17.19,7.44,6.46-13.7,15.76,33.74-.14,9.56-11-25.63,.08,8.59-9.88Zm204.93-47.96l23.92,32.81,14.32-38.74-11.4-4.21-7.73,20.92-24.14-32.71-14.32,38.74,11.57,4.28,7.8-21.09Zm-95.82,389.69l-6.86,6.98-2.19,31.81,5.83,7.99,39.9,2.75,6.8-7.12,2.19-31.81-5.77-7.85-39.9-2.75Zm30.01,38.13l-3.62,3.78-18.38-1.27-3.13-4.25,1.74-25.26,3.68-3.64,18.38,1.27,3.07,4.11-1.74,25.26Zm74.29-50.41l12.5,.41,21.22,41.14,6.21-18.36-17.85-34.59-22.09,11.4Zm-163.13-8.43l2.92,8.6,25.39,10.13,1.53,4.29-3.58,8.96-32.18-12.83-9.98,25.02,41.27,16.46,8.16-4.18-33.67-13.43,4.87-12.2,31.99,12.76,7.2-18.05-3.16-9.27-40.77-16.26Zm131.05,45.84l33.47-8.13-4.59-18.88-7.94-5.72-42.65,10.36,7.36,5.31,26.56-6.46,3.74,2.61,2.28,9.38-33.66,8.18,6.36,26.17,43.17-10.49,4.23-8.13-35.22,8.56-3.1-12.76Z"/><path class="m" d="M540.92,298.89l-1.99-.18c8.93-100.14-38.22-195.77-123.06-249.58C348.62,6.49,266.53-3.95,190.66,20.5l-.61-1.9c76.44-24.64,159.14-14.12,226.89,28.85,42.53,26.97,76.5,65.09,98.25,110.23,21.15,43.91,30.05,92.74,25.73,141.21Z"/></g></g></g></svg>